<svg width="248" height="222" viewBox="0 0 248 222" fill="none" xmlns="http://www.w3.org/2000/svg">
<circle cx="120" cy="114" r="88" fill="#2ECC71"/>
<path d="M151.499 135.575C151.499 140.927 147.128 145.306 141.785 145.306H85.8205C80.4777 145.306 76.1063 140.927 76.1063 135.575V27.3774C76.1063 22.0255 80.4779 17.6467 85.8205 17.6467H141.785C147.128 17.6467 151.499 22.0255 151.499 27.3774V135.575V135.575Z" fill="white"/>
<path d="M141.785 146.719H85.8205C79.6858 146.719 74.6951 141.72 74.6951 135.575V27.3774C74.6951 21.2326 79.686 16.2333 85.8205 16.2333H141.785C147.92 16.2333 152.91 21.2326 152.91 27.3774V135.575C152.91 141.72 147.919 146.719 141.785 146.719ZM85.8205 19.0602C81.242 19.0602 77.5173 22.7912 77.5173 27.3774V135.575C77.5173 140.162 81.2422 143.893 85.8205 143.893H141.785C146.364 143.893 150.088 140.161 150.088 135.575V27.3774C150.088 22.7912 146.363 19.0602 141.785 19.0602H85.8205Z" fill="black"/>
<path d="M167.619 135.575C167.619 140.927 163.248 145.306 157.905 145.306H101.941C96.5978 145.306 92.2264 140.927 92.2264 135.575V27.3774C92.2264 22.0255 96.5978 17.6467 101.941 17.6467H157.905C163.248 17.6467 167.619 22.0255 167.619 27.3774V135.575Z" fill="white"/>
<path d="M157.905 146.719H101.941C95.8062 146.719 90.8154 141.72 90.8154 135.575V27.3774C90.8154 21.2326 95.8062 16.2333 101.941 16.2333H157.905C164.04 16.2333 169.03 21.2326 169.03 27.3774V135.575C169.03 141.72 164.04 146.719 157.905 146.719ZM101.941 19.0602C97.3623 19.0602 93.6376 22.7912 93.6376 27.3774V135.575C93.6376 140.161 97.3623 143.892 101.941 143.892H157.905C162.484 143.892 166.208 140.161 166.208 135.575V27.3774C166.208 22.7912 162.483 19.0602 157.905 19.0602H101.941Z" fill="black"/>
<path d="M167.62 61.8685H92.2264V64.2916H167.62V61.8685Z" fill="black"/>
<path d="M119.592 53.1857C119.592 54.3934 118.563 55.3816 117.306 55.3816H104.491C103.233 55.3816 102.205 54.3934 102.205 53.1857C102.205 51.978 103.234 50.9897 104.491 50.9897H117.306C118.563 50.9897 119.592 51.9778 119.592 53.1857Z" fill="#B7CCD4"/>
<path d="M119.592 53.1857C119.592 54.3934 118.563 55.3816 117.306 55.3816H104.491C103.233 55.3816 102.205 54.3934 102.205 53.1857C102.205 51.978 103.234 50.9897 104.491 50.9897H117.306C118.563 50.9897 119.592 51.9778 119.592 53.1857Z" stroke="black" stroke-width="2"/>
<path d="M119.592 77.2828C119.592 78.4905 118.563 79.4788 117.306 79.4788H104.491C103.233 79.4788 102.205 78.4905 102.205 77.2828C102.205 76.0751 103.234 75.0869 104.491 75.0869H117.306C118.563 75.0869 119.592 76.0749 119.592 77.2828Z" fill="#B7CCD4"/>
<path d="M119.592 77.2828C119.592 78.4905 118.563 79.4788 117.306 79.4788H104.491C103.233 79.4788 102.205 78.4905 102.205 77.2828C102.205 76.0751 103.234 75.0869 104.491 75.0869H117.306C118.563 75.0869 119.592 76.0749 119.592 77.2828Z" stroke="black" stroke-width="2"/>
<path d="M166.208 64.2916H93.6376V66.008H166.208V64.2916Z" fill="#B7CCD4"/>
<path d="M151.499 135.89C151.499 136.478 150.592 136.959 149.483 136.959H106.13C105.021 136.959 104.114 136.478 104.114 135.89C104.114 135.303 105.021 134.822 106.13 134.822H149.483C150.592 134.822 151.499 135.303 151.499 135.89Z" fill="black"/>
<path d="M151.499 135.89C151.499 136.478 150.592 136.959 149.483 136.959H106.13C105.021 136.959 104.114 136.478 104.114 135.89C104.114 135.303 105.021 134.822 106.13 134.822H149.483C150.592 134.822 151.499 135.303 151.499 135.89Z" stroke="black" stroke-miterlimit="10"/>
<path d="M151.499 129.067C151.499 129.655 150.592 130.135 149.483 130.135H106.13C105.021 130.135 104.114 129.655 104.114 129.067C104.114 128.479 105.021 127.999 106.13 127.999H149.483C150.592 127.999 151.499 128.479 151.499 129.067Z" fill="black"/>
<path d="M151.499 129.067C151.499 129.655 150.592 130.135 149.483 130.135H106.13C105.021 130.135 104.114 129.655 104.114 129.067C104.114 128.479 105.021 127.999 106.13 127.999H149.483C150.592 127.999 151.499 128.479 151.499 129.067Z" stroke="black" stroke-miterlimit="10"/>
<path d="M131 174C127.921 174.005 124.869 174.582 122 175.7C120.816 177.881 119.206 179.802 117.265 181.349C115.323 182.895 113.091 184.035 110.7 184.7C108.282 188.346 106.994 192.625 107 197C107 209.7 117.7 220 131 220C144.3 220 155 209.7 155 197C155 184.3 144.3 174 131 174Z" fill="#F8971D"/>
<path d="M101 186C104.28 186.056 107.55 185.617 110.7 184.7C113.091 184.035 115.323 182.895 117.265 181.349C119.206 179.802 120.816 177.881 122 175.7C124.11 171.449 125.14 166.744 125 162C109 162 101 172.2 101 186Z" fill="#68963F"/>
<path opacity="0.25" d="M122 175.7C120.816 177.881 119.206 179.802 117.265 181.349C115.323 182.895 113.091 184.035 110.7 184.7C108.282 188.346 106.994 192.625 107 197C107 209.7 117.7 220 131 220C135.226 220.038 139.388 218.969 143.072 216.898C146.757 214.828 149.835 211.829 152 208.2C147.8 212.2 141.2 216.1 131 216.1C110.1 216.1 112.1 197.9 114.2 189.9C118.071 188.816 121.37 186.27 123.4 182.8C124.564 182.09 125.93 181.784 127.286 181.928C128.641 182.073 129.912 182.661 130.9 183.6V174C127.821 174.005 124.769 174.582 121.9 175.7H122Z" fill="#101129"/>
<path opacity="0.25" d="M145.897 194.958C147.849 193.005 147.216 189.206 144.482 186.472C141.749 183.739 137.95 183.106 135.997 185.058C134.045 187.011 134.678 190.81 137.411 193.543C140.145 196.277 143.944 196.91 145.897 194.958Z" fill="white"/>
<path d="M125 162C125 172.2 121.4 186 101 186C101 172.2 109 162 125 162Z" stroke="#2F446A" stroke-width="2" stroke-linecap="round" stroke-linejoin="round"/>
<path d="M122 175.7C124.869 174.582 127.921 174.005 131 174C144.3 174 155 184.3 155 197C155 209.7 144.3 220 131 220C117.7 220 107 209.7 107 197C106.994 192.625 108.282 188.346 110.7 184.7" stroke="#2F446A" stroke-width="2" stroke-linecap="round" stroke-linejoin="round"/>
<path d="M131 184C131 178 130.6 164.5 137 160M125 182C126.5 181.3 130 181.8 131 184C132 181.8 135.4 181.1 137 182H125Z" stroke="#2F446A" stroke-width="2" stroke-linecap="round" stroke-linejoin="round"/>
<g clip-path="url(#clip0_254_2)">
<path d="M10.8 110.7L8.80001 112.8C7.9911 112.071 6.92558 111.693 5.83787 111.749C4.75016 111.805 3.72935 112.291 3.00001 113.1C2.27066 113.909 1.89253 114.974 1.94879 116.062C2.00505 117.15 2.4911 118.171 3.30001 118.9C5.40001 121 6.20001 120.4 7.00001 121.1C7.80001 121.8 7.40001 123 9.20001 124.8C9.98239 125.582 11.0435 126.022 12.15 126.022C13.2565 126.022 14.3176 125.582 15.1 124.8C15.8824 124.018 16.3219 122.956 16.3219 121.85C16.3219 120.744 15.8824 119.682 15.1 118.9L14.8 118.7L16.6 116.9" fill="#FFF4E8"/>
<path d="M30.3 97.7C20.6 88 17.6 75.2 23.7 69.2C17.7 75.2 9.90001 87.6 12 101.4C12 101.4 13 106.3 12 107.3C11.6038 107.682 11.2887 108.141 11.0735 108.648C10.8583 109.154 10.7474 109.699 10.7474 110.25C10.7474 110.801 10.8583 111.346 11.0735 111.852C11.2887 112.359 11.6038 112.818 12 113.2L14.9 116C15.2824 116.396 15.7407 116.711 16.2475 116.927C16.7544 117.142 17.2994 117.253 17.85 117.253C18.4006 117.253 18.9456 117.142 19.4525 116.927C19.9593 116.711 20.4176 116.396 20.8 116C21.8 115 26.7 116 26.7 116C40.5 118.1 52.9 110.3 58.9 104.3C52.8 110.4 40 107.4 30.3 97.7V97.7Z" fill="#F16262"/>
<path opacity="0.18" d="M45.7 106.8C39.6 110 31.9 112.2 23.8 111C23.8 111 18.9 110 17.9 111C17.5176 111.396 17.0593 111.711 16.5525 111.926C16.0456 112.142 15.5006 112.253 14.95 112.253C14.3994 112.253 13.8544 112.142 13.3475 111.926C12.8407 111.711 12.3824 111.396 12 111L11 109.9C10.9581 110.488 11.0436 111.079 11.2507 111.631C11.4578 112.183 11.7816 112.684 12.2 113.1L15.1 116C15.4824 116.396 15.9407 116.711 16.4475 116.926C16.9544 117.142 17.4994 117.253 18.05 117.253C18.6006 117.253 19.1456 117.142 19.6525 116.926C20.1593 116.711 20.6176 116.396 21 116C22 115 26.9 116 26.9 116C40.6 118.1 53 110.3 59 104.3C55.9 107.4 51 108.1 45.7 106.8Z" fill="#101129"/>
<path d="M58.7913 104.184C64.8444 98.1305 61.9002 85.3722 52.2152 75.6872C42.5302 66.0022 29.7719 63.058 23.7188 69.1111C17.6656 75.1643 20.6099 87.9225 30.2949 97.6075C39.9799 107.293 52.7381 110.237 58.7913 104.184Z" fill="#F7A3A4"/>
<path d="M46.3462 91.7385C48.3769 89.7078 47.7437 85.7822 44.932 82.9704C42.1202 80.1586 38.1946 79.5255 36.1638 81.5562C34.1331 83.5869 34.7663 87.5125 37.578 90.3243C40.3898 93.1361 44.3154 93.7693 46.3462 91.7385Z" fill="#FFF4E8"/>
<path d="M58.7913 104.184C64.8444 98.1305 61.9002 85.3722 52.2152 75.6872C42.5302 66.0022 29.7719 63.058 23.7188 69.1111C17.6656 75.1643 20.6099 87.9225 30.2949 97.6075C39.9799 107.293 52.7381 110.237 58.7913 104.184Z" stroke="#2F446A" stroke-width="2" stroke-linecap="round" stroke-linejoin="round"/>
<path d="M46.3462 91.7385C48.3769 89.7078 47.7437 85.7822 44.932 82.9704C42.1202 80.1586 38.1946 79.5255 36.1638 81.5562C34.1331 83.5869 34.7663 87.5125 37.578 90.3243C40.3898 93.1361 44.3154 93.7693 46.3462 91.7385Z" stroke="#2F446A" stroke-width="2" stroke-linecap="round" stroke-linejoin="round"/>
<path d="M23.7 69.2C17.7 75.2 9.90001 87.6 12 101.4C12 101.4 13 106.3 12 107.3C11.6038 107.682 11.2887 108.141 11.0735 108.648C10.8583 109.154 10.7474 109.699 10.7474 110.25C10.7474 110.801 10.8583 111.346 11.0735 111.852C11.2887 112.359 11.6038 112.818 12 113.2L14.9 116C15.2824 116.396 15.7407 116.711 16.2475 116.927C16.7544 117.142 17.2994 117.253 17.85 117.253C18.4006 117.253 18.9456 117.142 19.4525 116.927C19.9593 116.711 20.4176 116.396 20.8 116C21.8 115 26.7 116 26.7 116C40.5 118.1 52.9 110.3 58.9 104.3" stroke="#2F446A" stroke-width="2" stroke-linecap="round" stroke-linejoin="round"/>
<path d="M10.8 110.7L8.80001 112.8C7.9911 112.071 6.92558 111.693 5.83787 111.749C4.75016 111.805 3.72935 112.291 3.00001 113.1C2.27066 113.909 1.89253 114.974 1.94879 116.062C2.00505 117.15 2.4911 118.171 3.30001 118.9C5.40001 121 6.20001 120.4 7.00001 121.1C7.80001 121.8 7.40001 123 9.20001 124.8C9.98239 125.582 11.0435 126.022 12.15 126.022C13.2565 126.022 14.3176 125.582 15.1 124.8C15.8824 124.018 16.3219 122.956 16.3219 121.85C16.3219 120.744 15.8824 119.682 15.1 118.9L14.8 118.7L16.6 116.9" stroke="#2F446A" stroke-width="2" stroke-linecap="round" stroke-linejoin="round"/>
</g>
<path d="M230.8 66.3C225.4 60.9 218.7 58.9 214.1 63.5C202.2 75.5 183.6 107.9 186.3 110.7C189 113.5 222.5 94.1 233.6 82.9C238.2 78.3 236.2 71.6 230.8 66.3V66.3Z" fill="#F8971D"/>
<path opacity="0.18" d="M234.6 77.9C223.5 89.1 190.1 108.5 187.3 105.7L187.1 105.4C186 108.2 185.7 110.1 186.3 110.7C189.1 113.5 222.4 94 233.5 82.9C234.426 82.0033 235.133 80.9054 235.566 79.6916C236 78.4777 236.148 77.1804 236 75.9C235.625 76.6265 235.154 77.2993 234.6 77.9V77.9Z" fill="#101129"/>
<path opacity="0.25" d="M197.1 93.4L196.6 94.3C192.4 102.6 229 68.5 225.7 65.6C224.239 64.639 222.547 64.0865 220.8 64C220.068 63.9986 219.343 64.1489 218.672 64.4415C218.001 64.7341 217.397 65.1626 216.9 65.7C210.5 72.1 202.8 83.6 197.2 93.4H197.1Z" fill="white"/>
<path d="M246 67.7C243.6 65.3 234.9 62.1 230.7 66.3M230.7 66.3C225.3 60.9 218.6 58.9 214 63.5C202.1 75.5 183.5 107.9 186.3 110.7C189.1 113.5 222.4 94.1 233.5 82.9C238.1 78.3 236.1 71.6 230.7 66.3V66.3ZM210.4 68.1L218.2 76L210.4 68.1ZM224.4 90.5L218.2 84.3L224.4 90.5ZM201.8 79.1L207.1 84.3L201.8 79.1ZM211.1 99.4L204.3 92.7L211.1 99.4ZM239.1 57.9L230.7 66.3L239.1 57.9ZM229.3 51C231.7 53.4 234.9 62.1 230.7 66.3L229.3 51Z" stroke="#2F446A" stroke-width="2" stroke-linecap="round" stroke-linejoin="round"/>
<path d="M246 67.7C243.6 65.3 234.9 62.1 230.7 66.3M230.7 66.3C225.3 60.9 218.6 58.9 214 63.5C202.1 75.5 183.5 107.9 186.3 110.7C189.1 113.5 222.4 94.1 233.5 82.9C238.1 78.3 236.1 71.6 230.7 66.3V66.3ZM210.4 68.1L218.2 76L210.4 68.1ZM224.4 90.5L218.2 84.3L224.4 90.5ZM201.8 79.1L207.1 84.3L201.8 79.1ZM211.1 99.4L204.3 92.7L211.1 99.4ZM239.1 57.9L230.7 66.3L239.1 57.9ZM229.3 51C231.7 53.4 234.9 62.1 230.7 66.3L229.3 51Z" stroke="#2F446A" stroke-width="2" stroke-linecap="round" stroke-linejoin="round"/>
<defs>
<clipPath id="clip0_254_2">
<rect width="64" height="64" fill="white" transform="translate(0 64)"/>
</clipPath>
</defs>
</svg>
