<svg width="632" height="202" viewBox="0 0 632 202" fill="none" xmlns="http://www.w3.org/2000/svg">
<path d="M128.728 16.624C131.416 17.008 133.24 17.824 134.2 19.072C135.256 20.32 135.784 21.952 135.784 23.968C135.784 30.592 132.232 33.664 125.128 33.184L120.088 32.752C114.424 32.272 108.76 31.888 103.096 31.6C97.528 31.312 91.672 31.168 85.528 31.168H79.048C77.896 45.376 76.696 58.336 75.448 70.048L100.216 69.616C103.768 69.616 106.12 70.24 107.272 71.488C108.52 72.736 109.144 74.416 109.144 76.528C109.144 79.792 108.184 82.384 106.264 84.304C104.344 86.128 101.608 87.04 98.056 87.04H73.432L72.568 93.232C70.552 109.072 66.232 120.352 59.608 127.072C53.08 133.792 44.056 137.152 32.536 137.152C26.008 137.152 20.008 135.76 14.536 132.976C9.064 130.096 5.032 126.64 2.44 122.608C1.384 120.976 0.856 119.008 0.856 116.704C0.856 114.4 1.384 112.384 2.44 110.656C3.592 108.928 4.984 108.064 6.616 108.064C7.768 108.064 8.872 108.448 9.928 109.216C11.08 109.984 12.52 111.472 14.248 113.68C18.856 119.728 24.568 122.752 31.384 122.752C36.856 122.752 41.416 120.544 45.064 116.128C48.808 111.616 51.208 104.56 52.264 94.96L53.128 87.04H46.216C44.008 87.04 42.088 86.416 40.456 85.168C38.92 83.92 38.152 82.144 38.152 79.84C38.152 76.864 38.92 74.608 40.456 73.072C41.992 71.44 44.248 70.624 47.224 70.624C49.912 70.624 52.552 70.576 55.144 70.48C56.296 59.92 57.544 47.104 58.888 32.032C48.52 32.992 41.224 34.672 37 37.072C32.776 39.472 30.664 43.024 30.664 47.728C30.664 50.992 31.624 54.112 33.544 57.088C34.12 57.952 34.408 58.816 34.408 59.68C34.408 61.408 33.448 62.944 31.528 64.288C29.608 65.536 27.448 66.16 25.048 66.16C22.456 66.16 20.248 65.392 18.424 63.856C17.272 62.896 16.168 60.928 15.112 57.952C14.056 54.976 13.528 51.664 13.528 48.016C13.528 36.112 19.624 27.472 31.816 22.096C44.104 16.72 62.008 14.032 85.528 14.032C101.848 14.032 116.248 14.896 128.728 16.624ZM120.652 136.72C117.004 136.72 114.412 134.8 112.876 130.96C111.436 127.12 110.716 120.976 110.716 112.528C110.716 100.048 112.492 88.192 116.044 76.96C116.908 74.176 118.3 72.16 120.22 70.912C122.236 69.568 125.02 68.896 128.572 68.896C130.492 68.896 131.836 69.136 132.604 69.616C133.372 70.096 133.756 71.008 133.756 72.352C133.756 73.888 133.036 77.344 131.596 82.72C130.636 86.56 129.868 89.92 129.292 92.8C128.716 95.68 128.236 99.232 127.852 103.456C131.02 95.2 134.572 88.48 138.508 83.296C142.444 78.112 146.284 74.416 150.028 72.208C153.868 70 157.372 68.896 160.54 68.896C166.78 68.896 169.9 72.016 169.9 78.256C169.9 79.504 169.468 82.528 168.604 87.328C167.836 91.168 167.452 93.568 167.452 94.528C167.452 97.888 168.652 99.568 171.052 99.568C173.74 99.568 177.196 97.456 181.42 93.232C182.668 91.984 183.964 91.36 185.308 91.36C186.556 91.36 187.516 91.936 188.188 93.088C188.956 94.144 189.34 95.584 189.34 97.408C189.34 100.96 188.38 103.744 186.46 105.76C183.772 108.544 180.604 110.944 176.956 112.96C173.404 114.88 169.612 115.84 165.58 115.84C160.492 115.84 156.604 114.544 153.916 111.952C151.324 109.36 150.028 105.856 150.028 101.44C150.028 100 150.172 98.56 150.46 97.12C150.652 95.2 150.748 93.904 150.748 93.232C150.748 91.696 150.22 90.928 149.164 90.928C147.724 90.928 145.804 92.56 143.404 95.824C141.1 98.992 138.796 103.216 136.492 108.496C134.188 113.776 132.316 119.344 130.876 125.2C129.82 129.712 128.572 132.784 127.132 134.416C125.788 135.952 123.628 136.72 120.652 136.72ZM194.823 59.392C190.791 59.392 187.767 58.48 185.751 56.656C183.735 54.736 182.727 52.096 182.727 48.736C182.727 45.376 184.023 42.592 186.615 40.384C189.303 38.08 192.615 36.928 196.551 36.928C200.103 36.928 202.983 37.792 205.191 39.52C207.399 41.248 208.503 43.696 208.503 46.864C208.503 50.704 207.255 53.776 204.759 56.08C202.263 58.288 198.951 59.392 194.823 59.392ZM193.671 136.72C187.431 136.72 182.871 134.512 179.991 130.096C177.207 125.68 175.815 119.824 175.815 112.528C175.815 108.208 176.343 102.688 177.399 95.968C178.551 89.152 179.991 82.816 181.719 76.96C182.583 73.888 183.735 71.776 185.175 70.624C186.615 69.472 188.919 68.896 192.087 68.896C196.983 68.896 199.431 70.528 199.431 73.792C199.431 76.192 198.519 81.76 196.695 90.496C194.391 101.056 193.239 108.208 193.239 111.952C193.239 114.832 193.623 117.04 194.391 118.576C195.159 120.112 196.455 120.88 198.279 120.88C200.007 120.88 202.167 119.68 204.759 117.28C207.351 114.88 210.807 111.088 215.127 105.904C216.279 104.56 217.575 103.888 219.015 103.888C220.263 103.888 221.223 104.464 221.895 105.616C222.663 106.768 223.047 108.352 223.047 110.368C223.047 114.208 222.135 117.184 220.311 119.296C210.807 130.912 201.927 136.72 193.671 136.72ZM293.188 103.888C294.436 103.888 295.396 104.464 296.068 105.616C296.836 106.768 297.22 108.352 297.22 110.368C297.22 114.208 296.308 117.184 294.484 119.296C290.548 124.096 286.228 128.224 281.524 131.68C276.82 135.04 272.164 136.72 267.556 136.72C260.26 136.72 254.692 132.448 250.852 123.904C246.82 128.992 243.268 132.4 240.196 134.128C237.22 135.856 233.716 136.72 229.684 136.72C223.828 136.72 218.98 134.56 215.14 130.24C211.396 125.824 209.524 120.112 209.524 113.104C209.524 105.424 211.156 98.32 214.42 91.792C217.684 85.168 222.148 79.792 227.812 75.664C233.572 71.44 240.004 68.944 247.108 68.176C248.932 49.552 252.388 33.664 257.476 20.512C262.66 7.26399 269.428 0.639992 277.78 0.639992C281.908 0.639992 285.316 2.51199 288.004 6.256C290.788 9.99999 292.18 15.664 292.18 23.248C292.18 34 289.54 46.576 284.26 60.976C278.98 75.376 271.924 90.16 263.092 105.328C263.476 110.896 264.292 114.88 265.54 117.28C266.884 119.68 268.564 120.88 270.58 120.88C273.172 120.88 275.812 119.728 278.5 117.424C281.188 115.12 284.788 111.28 289.3 105.904C290.452 104.56 291.748 103.888 293.188 103.888ZM276.196 14.752C274.372 14.752 272.548 18.016 270.724 24.544C268.9 30.976 267.316 39.424 265.972 49.888C264.724 60.352 263.812 71.296 263.236 82.72C273.988 59.296 279.364 40.48 279.364 26.272C279.364 22.624 279.028 19.792 278.356 17.776C277.78 15.76 277.06 14.752 276.196 14.752ZM234.724 122.176C236.548 122.176 238.372 121.456 240.196 120.016C242.02 118.48 244.324 115.696 247.108 111.664C246.148 106.48 245.668 100.672 245.668 94.24C245.668 91.936 245.764 88.192 245.956 83.008C240.676 84.64 236.26 88.192 232.708 93.664C229.252 99.04 227.524 105.04 227.524 111.664C227.524 118.672 229.924 122.176 234.724 122.176ZM357.828 104.176C359.076 104.176 360.036 104.8 360.708 106.048C361.476 107.2 361.859 108.688 361.859 110.512C361.859 112.72 361.524 114.448 360.852 115.696C360.18 116.944 359.124 118.048 357.684 119.008C349.428 124.576 343.38 128.704 339.54 131.392L330.324 137.584C326.676 157.456 321.876 173.056 315.924 184.384C310.068 195.808 302.58 201.52 293.46 201.52C288.564 201.52 284.58 199.984 281.508 196.912C278.436 193.936 276.899 190 276.899 185.104C276.899 178.288 279.588 170.944 284.964 163.072C290.34 155.296 300.42 145.696 315.203 134.272L316.068 128.656C314.436 131.248 312.276 133.264 309.588 134.704C306.996 136.048 304.404 136.72 301.812 136.72C295.86 136.72 291.108 134.56 287.556 130.24C284.004 125.92 282.228 120.256 282.228 113.248C282.228 105.568 284.004 98.32 287.556 91.504C291.108 84.592 295.812 79.072 301.668 74.944C307.62 70.72 313.908 68.608 320.532 68.608C322.644 68.608 324.036 69.04 324.708 69.904C325.476 70.672 326.1 72.112 326.58 74.224C328.404 73.84 330.516 73.648 332.916 73.648C335.316 73.648 336.996 74.032 337.956 74.8C339.012 75.472 339.54 76.864 339.54 78.976C339.54 80.128 339.492 81.04 339.396 81.712C339.012 84.688 337.812 92.224 335.796 104.32C335.412 106.624 334.98 109.168 334.5 111.952C334.116 114.64 333.684 117.52 333.204 120.592C340.596 114.832 347.7 109.744 354.516 105.328C355.764 104.56 356.868 104.176 357.828 104.176ZM306.996 122.176C309.204 122.176 311.316 120.832 313.332 118.144C315.348 115.456 316.788 111.616 317.652 106.624L322.26 82C318.324 82.096 314.676 83.632 311.316 86.608C307.956 89.488 305.268 93.328 303.252 98.128C301.236 102.928 300.228 108.016 300.228 113.392C300.228 116.368 300.804 118.576 301.956 120.016C303.204 121.456 304.884 122.176 306.996 122.176ZM295.044 187.552C297.444 187.552 300.132 184.672 303.108 178.912C306.18 173.152 309.108 163.984 311.892 151.408C304.5 157.744 299.172 163.456 295.908 168.544C292.644 173.632 291.012 178.096 291.012 181.936C291.012 183.568 291.3 184.912 291.876 185.968C292.548 187.024 293.604 187.552 295.044 187.552ZM404.558 108.208C405.806 108.208 406.766 108.784 407.438 109.936C408.206 111.088 408.59 112.672 408.59 114.688C408.59 118.144 407.774 121.12 406.142 123.616C403.454 127.744 399.902 130.96 395.486 133.264C391.166 135.568 385.982 136.72 379.934 136.72C370.718 136.72 363.566 133.984 358.478 128.512C353.39 122.944 350.846 115.456 350.846 106.048C350.846 99.424 352.238 93.28 355.022 87.616C357.806 81.856 361.646 77.296 366.542 73.936C371.534 70.576 377.15 68.896 383.39 68.896C388.958 68.896 393.422 70.576 396.782 73.936C400.142 77.2 401.822 81.664 401.822 87.328C401.822 93.952 399.422 99.664 394.622 104.464C389.918 109.168 381.854 112.912 370.43 115.696C372.734 120.112 376.622 122.32 382.094 122.32C386.03 122.32 389.246 121.408 391.742 119.584C394.334 117.76 397.31 114.688 400.67 110.368C401.822 108.928 403.118 108.208 404.558 108.208ZM380.942 83.008C377.39 83.008 374.366 85.072 371.87 89.2C369.47 93.328 368.27 98.32 368.27 104.176V104.464C373.934 103.12 378.398 101.104 381.662 98.416C384.926 95.728 386.558 92.608 386.558 89.056C386.558 87.232 386.03 85.792 384.974 84.736C384.014 83.584 382.67 83.008 380.942 83.008Z" fill="#2ECC71"/>
<path d="M469.665 95.68C472.353 95.68 473.697 97.696 473.697 101.728C473.697 109.312 467.745 113.104 455.841 113.104C453.537 113.104 450.225 112.672 445.905 111.808C447.153 117.76 448.161 124.384 448.929 131.68C449.793 138.88 450.225 144.832 450.225 149.536C450.225 159.904 448.545 167.824 445.185 173.296C441.825 178.768 437.409 181.504 431.937 181.504C425.025 181.504 420.081 176.608 417.105 166.816C414.225 157.024 412.785 142.24 412.785 122.464C412.785 104.032 414.753 85.36 418.689 66.448C422.721 47.44 428.193 31.744 435.105 19.36C442.113 6.87999 449.793 0.639992 458.145 0.639992C462.657 0.639992 466.161 2.65599 468.657 6.68799C471.249 10.72 472.545 16.144 472.545 22.96C472.545 45.52 459.057 70.096 432.081 96.688C431.121 106.096 430.641 114.352 430.641 121.456C430.641 131.344 430.977 141.472 431.649 151.84C432.321 162.304 433.425 167.536 434.961 167.536C437.841 167.536 439.281 162.544 439.281 152.56C439.281 145.072 438.753 137.824 437.697 130.816C436.737 123.808 435.393 116.416 433.665 108.64C433.569 107.392 433.953 105.808 434.817 103.888C435.777 101.968 436.929 100.288 438.273 98.848C439.617 97.408 440.817 96.688 441.873 96.688C443.793 96.688 446.097 96.784 448.785 96.976C449.649 97.072 450.657 97.12 451.809 97.12C455.649 97.12 459.921 96.784 464.625 96.112C465.393 96.016 466.209 95.92 467.073 95.824C467.937 95.728 468.801 95.68 469.665 95.68ZM455.121 14.896C453.393 14.896 451.233 17.824 448.641 23.68C446.145 29.536 443.649 37.312 441.153 47.008C438.657 56.608 436.497 66.784 434.673 77.536C442.353 68.8 448.257 59.728 452.385 50.32C456.513 40.816 458.625 31.936 458.721 23.68C458.721 17.824 457.521 14.896 455.121 14.896ZM477.522 136.72C473.202 136.72 469.65 134.752 466.866 130.816C464.178 126.784 462.834 121.792 462.834 115.84C462.834 108.64 463.314 102.064 464.274 96.112C465.234 90.064 466.818 83.68 469.026 76.96C469.986 74.08 471.33 72.016 473.058 70.768C474.786 69.52 477.522 68.896 481.266 68.896C483.378 68.896 484.818 69.232 485.586 69.904C486.45 70.576 486.882 71.584 486.882 72.928C486.882 73.696 486.354 76.288 485.298 80.704C484.338 84.256 483.57 87.472 482.994 90.352C481.074 100.432 480.114 107.152 480.114 110.512C480.114 112.528 480.354 113.968 480.834 114.832C481.314 115.6 482.082 115.984 483.138 115.984C484.578 115.984 486.354 114.544 488.466 111.664C490.674 108.784 492.978 104.416 495.378 98.56C497.874 92.704 500.274 85.504 502.578 76.96C503.346 74.08 504.498 72.016 506.034 70.768C507.666 69.52 510.066 68.896 513.234 68.896C515.442 68.896 516.978 69.184 517.842 69.76C518.706 70.24 519.138 71.2 519.138 72.64C519.138 75.04 517.938 81.616 515.538 92.368C512.85 104.656 511.506 112.24 511.506 115.12C511.506 116.944 511.89 118.384 512.658 119.44C513.426 120.4 514.434 120.88 515.682 120.88C517.602 120.88 519.858 119.728 522.45 117.424C525.138 115.024 528.69 111.184 533.106 105.904C534.258 104.56 535.554 103.888 536.994 103.888C538.242 103.888 539.202 104.464 539.874 105.616C540.642 106.768 541.026 108.352 541.026 110.368C541.026 114.208 540.114 117.184 538.29 119.296C534.162 124.384 529.698 128.56 524.898 131.824C520.194 135.088 514.818 136.72 508.77 136.72C504.162 136.72 500.754 134.944 498.546 131.392C496.434 127.84 495.378 122.848 495.378 116.416C493.746 122.944 491.298 127.984 488.034 131.536C484.77 134.992 481.266 136.72 477.522 136.72ZM583.926 103.888C585.174 103.888 586.134 104.464 586.806 105.616C587.574 106.768 587.958 108.352 587.958 110.368C587.958 114.208 587.046 117.184 585.222 119.296C581.094 124.384 576.582 128.56 571.686 131.824C566.886 135.088 561.414 136.72 555.27 136.72C546.822 136.72 540.534 132.88 536.406 125.2C532.374 117.52 530.358 107.584 530.358 95.392C530.358 83.68 531.846 70.336 534.822 55.36C537.894 40.384 542.358 27.52 548.214 16.768C554.166 6.01599 561.222 0.639992 569.382 0.639992C573.99 0.639992 577.59 2.79999 580.182 7.11999C582.87 11.344 584.214 17.44 584.214 25.408C584.214 36.832 581.046 50.08 574.71 65.152C568.374 80.224 559.782 95.152 548.934 109.936C549.606 113.872 550.71 116.704 552.246 118.432C553.782 120.064 555.798 120.88 558.294 120.88C562.23 120.88 565.686 119.776 568.662 117.568C571.638 115.264 575.43 111.376 580.038 105.904C581.19 104.56 582.486 103.888 583.926 103.888ZM566.214 14.896C564.006 14.896 561.51 18.88 558.726 26.848C555.942 34.816 553.494 44.704 551.382 56.512C549.27 68.32 548.118 79.648 547.926 90.496C554.742 79.264 560.166 68.032 564.198 56.8C568.23 45.472 570.246 35.152 570.246 25.84C570.246 18.544 568.902 14.896 566.214 14.896ZM617.934 115.696C618.99 114.736 620.046 114.256 621.102 114.256C622.254 114.256 623.166 114.928 623.838 116.272C624.606 117.52 624.99 119.056 624.99 120.88C624.99 124.912 623.55 128.128 620.67 130.528C615.678 134.656 610.014 136.72 603.678 136.72C594.558 136.72 587.886 132.928 583.662 125.344C579.438 117.664 577.326 107.68 577.326 95.392C577.326 83.68 578.814 70.336 581.79 55.36C584.862 40.384 589.326 27.52 595.182 16.768C601.134 6.01599 608.19 0.639992 616.35 0.639992C620.958 0.639992 624.558 2.79999 627.15 7.11999C629.838 11.344 631.182 17.44 631.182 25.408C631.182 36.832 628.014 50.08 621.678 65.152C615.438 80.224 606.894 95.104 596.046 109.792C596.718 113.728 597.918 116.56 599.646 118.288C601.374 120.016 603.726 120.88 606.702 120.88C608.334 120.88 610.158 120.4 612.174 119.44C614.286 118.48 616.206 117.232 617.934 115.696ZM613.182 14.896C610.974 14.896 608.478 18.88 605.694 26.848C602.91 34.816 600.462 44.704 598.35 56.512C596.238 68.32 595.086 79.648 594.894 90.496C601.71 79.264 607.134 68.032 611.166 56.8C615.198 45.472 617.214 35.152 617.214 25.84C617.214 18.544 615.87 14.896 613.182 14.896Z" fill="#444444"/>
</svg>
