<svg width="384" height="384" viewBox="0 0 384 384" fill="none" xmlns="http://www.w3.org/2000/svg">
<circle cx="192" cy="200" r="184" fill="#DADADA"/>
<path d="M171.654 114.726C169.371 111.083 168.109 106.893 168 102.595C167.89 98.2973 168.937 94.0488 171.031 90.294C173.125 86.5391 176.19 83.4157 179.904 81.2502C183.618 79.0848 187.846 77.9568 192.145 77.9842C196.444 78.0115 200.657 79.1933 204.343 81.4059C208.03 83.6185 211.054 86.7806 213.1 90.5619C215.146 94.3431 216.139 98.6045 215.974 102.901C215.81 107.197 214.495 111.37 212.166 114.984" fill="#A59A98"/>
<path d="M324.366 162V234C324.366 253.096 316.78 271.409 303.278 284.912C289.775 298.414 271.462 306 252.366 306H132.366C113.27 306 94.9569 298.414 81.4543 284.912C67.9517 271.409 60.366 253.096 60.366 234V162H324.366Z" fill="white"/>
<path opacity="0.25" d="M90.396 234V162H60.396V234C60.396 253.096 67.9817 271.409 81.4843 284.912C94.9869 298.414 113.3 306 132.396 306H162.396C143.3 306 124.987 298.414 111.484 284.912C97.9817 271.409 90.396 253.096 90.396 234V234Z" fill="#101129"/>
<path d="M324.366 160.098C285.408 131.13 244.65 114 192.378 114C140.544 114 98.3999 131.574 59.6279 160.098L60.3659 162.012H324.366V160.098Z" fill="white"/>
<path opacity="0.5" d="M204.306 162.012H252.294V306.024H204.306V162.012ZM252.294 162C252.294 162 235.998 114 192.378 114C217.248 114 257.136 123.828 290.778 162.03L252.294 162Z" fill="white"/>
<path d="M60 162V234C60 253.096 67.5857 271.409 81.0883 284.912C94.5909 298.414 112.904 306 132 306H252C271.096 306 289.409 298.414 302.912 284.912C316.414 271.409 324 253.096 324 234V162H60ZM60 162C98.772 133.488 140.172 114 192 114C244.278 114 285.036 132.786 324 161.76L60 162ZM59.994 185.97H36.006M324.006 185.97H347.994M171.288 114.726C169.005 111.083 167.743 106.893 167.634 102.595C167.524 98.2973 168.571 94.0488 170.665 90.294C172.759 86.5391 175.824 83.4157 179.538 81.2502C183.252 79.0848 187.48 77.9568 191.779 77.9842C196.078 78.0115 200.291 79.1933 203.977 81.4059C207.664 83.6185 210.688 86.7806 212.734 90.5619C214.78 94.3431 215.773 98.6045 215.608 102.901C215.444 107.197 214.129 111.37 211.8 114.984L171.288 114.726ZM12 162C18.3652 162 24.4697 164.529 28.9706 169.029C33.4714 173.53 36 179.635 36 186L12 162ZM372 162C365.635 162 359.53 164.529 355.029 169.029C350.529 173.53 348 179.635 348 186L372 162Z" stroke="#BABABA" stroke-width="10" stroke-linecap="round" stroke-linejoin="round"/>
</svg>
