<svg width="368" height="368" viewBox="0 0 368 368" fill="none" xmlns="http://www.w3.org/2000/svg">
<circle cx="184" cy="184" r="184" fill="#DADADA"/>
<path d="M120.25 79.125V239.75H176.469V255.812C176.469 266.463 180.699 276.676 188.23 284.207C195.761 291.738 205.975 295.969 216.625 295.969C227.275 295.969 237.489 291.738 245.02 284.207C252.551 276.676 256.781 266.463 256.781 255.812V79.125C256.78 72.8039 259.264 66.7356 263.696 62.2286C268.128 57.7215 274.153 55.1366 280.473 55.0312H144.344C137.954 55.0313 131.825 57.5697 127.307 62.0881C122.788 66.6066 120.25 72.7349 120.25 79.125V79.125Z" fill="white"/>
<path d="M216.625 295.969C205.975 295.969 195.761 291.738 188.23 284.207C180.699 276.676 176.469 266.463 176.469 255.812V239.75H64.0312V255.812C64.0312 266.463 68.262 276.676 75.7927 284.207C79.5216 287.936 83.9484 290.894 88.8204 292.912C93.6923 294.93 98.9141 295.969 104.188 295.969H216.625ZM256.781 79.125C256.781 72.7349 259.32 66.6066 263.838 62.0881C268.357 57.5697 274.485 55.0313 280.875 55.0312C287.265 55.0313 293.393 57.5697 297.912 62.0881C302.43 66.6066 304.969 72.7349 304.969 79.125V95.1875H256.781V79.125Z" fill="white"/>
<path opacity="0.15" d="M216.625 295.969C205.975 295.969 195.761 291.738 188.23 284.207C180.699 276.676 176.469 266.463 176.469 255.812V239.75H64.0312V255.812C64.0312 266.463 68.262 276.676 75.7927 284.207C79.5216 287.936 83.9484 290.894 88.8204 292.912C93.6923 294.93 98.9141 295.969 104.188 295.969H216.625ZM256.781 79.125C256.781 72.7349 259.32 66.6066 263.838 62.0881C268.357 57.5697 274.485 55.0313 280.875 55.0312C287.265 55.0313 293.393 57.5697 297.912 62.0881C302.43 66.6066 304.969 72.7349 304.969 79.125V95.1875H256.781V79.125Z" fill="#000064"/>
<path d="M120.25 239.75V79.125C120.25 72.7349 122.788 66.6066 127.307 62.0881C131.825 57.5697 137.954 55.0313 144.344 55.0312H280.875" stroke="#BABABA" stroke-width="10" stroke-linecap="round" stroke-linejoin="round"/>
<path d="M216.625 295.969C227.275 295.969 237.489 291.738 245.02 284.207C252.551 276.677 256.781 266.463 256.781 255.812V79.125C256.781 72.7349 259.32 66.6066 263.838 62.0881C268.357 57.5697 274.485 55.0313 280.875 55.0312C287.265 55.0313 293.393 57.5697 297.912 62.0881C302.43 66.6066 304.969 72.7349 304.969 79.125V95.1875H256.781L216.625 295.969ZM216.625 295.969C205.975 295.969 195.761 291.738 188.23 284.207C180.699 276.677 176.469 266.463 176.469 255.812V239.75H64.0312V255.812C64.0312 266.463 68.262 276.677 75.7927 284.207C79.5216 287.936 83.9484 290.894 88.8204 292.912C93.6923 294.93 98.9141 295.969 104.188 295.969H216.625ZM152.375 95.1875H216.625M152.375 159.438H216.625M152.375 127.312H200.562M152.375 191.562H200.562" stroke="#BABABA" stroke-width="10" stroke-linecap="round" stroke-linejoin="round"/>
</svg>
