<svg width="368" height="416" viewBox="0 0 368 416" fill="none" xmlns="http://www.w3.org/2000/svg">
<circle cx="184" cy="232" r="184" fill="#DADADA"/>
<path d="M74 143V319C74 324.835 76.3178 330.431 80.4437 334.556C84.5695 338.682 90.1652 341 96 341H272C277.835 341 283.431 338.682 287.556 334.556C291.682 330.431 294 324.835 294 319V143" fill="white"/>
<path opacity="0.25" d="M96 330V154H294V143H74V319C74 324.835 76.3178 330.431 80.4437 334.556C84.5695 338.682 90.1652 341 96 341H99.3C97.2455 337.69 96.1067 333.894 96 330Z" fill="#101129"/>
<path d="M272 11H96C90.1652 11 84.5695 13.3179 80.4437 17.4437C76.3178 21.5695 74 27.1652 74 33V143H294V33C294 27.1652 291.682 21.5695 287.556 17.4437C283.431 13.3179 277.835 11 272 11Z" fill="white"/>
<path opacity="0.25" d="M116.9 11H96C90.1652 11 84.5694 13.3179 80.4436 17.4437C76.3178 21.5695 74 27.1652 74 33V143H94.9V33C94.9 27.1652 97.2178 21.5695 101.344 17.4437C105.469 13.3179 111.065 11 116.9 11Z" fill="#101129"/>
<path d="M118 187V242M74 143V319C74 324.835 76.3178 330.431 80.4437 334.556C84.5695 338.682 90.1652 341 96 341H272C277.835 341 283.431 338.682 287.556 334.556C291.682 330.431 294 324.835 294 319V143H74ZM272 11H96C90.1652 11 84.5695 13.3179 80.4437 17.4437C76.3178 21.5695 74 27.1652 74 33V143H294V33C294 27.1652 291.682 21.5695 287.556 17.4437C283.431 13.3179 277.835 11 272 11ZM118 55V99V55Z" stroke="#B4B4B4" stroke-width="10" stroke-linecap="round" stroke-linejoin="round"/>
</svg>
