<svg width="61" height="42" viewBox="0 0 61 42" fill="none" xmlns="http://www.w3.org/2000/svg">
<path d="M31.4044 41C41.8978 41 50.4044 32.4934 50.4044 22C50.4044 11.5066 41.8978 3 31.4044 3C20.911 3 12.4044 11.5066 12.4044 22C12.4044 32.4934 20.911 41 31.4044 41Z" stroke="#202020" stroke-linecap="round" stroke-linejoin="round"/>
<path d="M31.4044 33C37.4796 33 42.4044 28.0751 42.4044 22C42.4044 15.9249 37.4796 11 31.4044 11C25.3293 11 20.4044 15.9249 20.4044 22C20.4044 28.0751 25.3293 33 31.4044 33Z" stroke="#202020" stroke-linecap="round" stroke-linejoin="round"/>
<path d="M5.40442 1V10.5M60.4044 23.2V37C60.4044 37.5304 60.1937 38.0391 59.8186 38.4142C59.4436 38.7893 58.9349 39 58.4044 39C57.874 39 57.3653 38.7893 56.9902 38.4142C56.6151 38.0391 56.4044 37.5304 56.4044 37V23.1L60.4044 23.2Z" stroke="#202020" stroke-linecap="round" stroke-linejoin="round"/>
<path d="M60.4044 23.2V1C58.7336 1 57.1311 1.66375 55.9497 2.84523C54.7682 4.02671 54.1044 5.62914 54.1044 7.3V20C54.1044 20.4202 54.1872 20.8363 54.348 21.2246C54.5088 21.6128 54.7445 21.9656 55.0417 22.2627C55.3388 22.5599 55.6916 22.7956 56.0798 22.9564C56.4681 23.1172 56.8842 23.2 57.3044 23.2H60.4044ZM9.90442 13.7L9.20442 1H1.60442L1.00442 13.7C0.965895 14.4657 1.17986 15.2229 1.61345 15.8552C2.04704 16.4876 2.67626 16.96 3.40442 17.2V37C3.40442 37.5304 3.61514 38.0391 3.99021 38.4142C4.36528 38.7893 4.87399 39 5.40442 39C5.93486 39 6.44357 38.7893 6.81864 38.4142C7.19371 38.0391 7.40442 37.5304 7.40442 37V17.1C8.13431 16.8825 8.77333 16.4328 9.2245 15.8192C9.67568 15.2056 9.91439 14.4616 9.90442 13.7V13.7Z" stroke="#202020" stroke-linecap="round" stroke-linejoin="round"/>
</svg>
