<svg width="55" height="55" viewBox="0 0 55 55" fill="none" xmlns="http://www.w3.org/2000/svg">
<path d="M34.375 5.24221C34.375 13.4922 38.5859 20.2813 48.4688 21.8281C53.1094 15.0391 53.2812 7.64846 53.2812 1.97659C53.2812 1.97659 43.3125 0.257836 34.375 5.24221Z" fill="#D5E2F4"/>
<path d="M48.3828 21.8281C48.6406 26.0391 46.4922 34.0312 42.1953 38.1562C40.2187 33.6875 35.6641 31.7969 36.0938 31.8828L48.3828 21.8281ZM31.1953 7.04688C21.3984 7.04688 14.0078 14.5234 14.0078 14.5234C14.0078 14.5234 22.4297 15.2969 22.6875 18.3047" fill="#8FA9D8"/>
<path d="M44.6016 11.8594C45.5508 11.8594 46.3203 11.0514 46.3203 10.0547C46.3203 9.05799 45.5508 8.25 44.6016 8.25C43.6523 8.25 42.8828 9.05799 42.8828 10.0547C42.8828 11.0514 43.6523 11.8594 44.6016 11.8594Z" fill="#8FA9D8"/>
<path d="M12.6328 53.2812C13.6641 49.4141 14.5234 44.6016 15.6406 39.2734C11.0638 40.4675 6.41304 41.3574 1.71875 41.9375C1.71875 41.9375 11.2578 45.1172 12.6328 53.2812ZM34.375 5.24219C31.3445 6.89384 28.7062 9.18031 26.6406 11.9453C20.5391 20.1094 17.7031 30.25 15.7266 39.2734C22.7481 37.5434 29.5731 35.0956 36.0938 31.9688C42.0234 29.0469 45.8906 25.5234 48.3828 21.8281C38.5859 20.2812 34.375 13.4922 34.375 5.24219Z" fill="#8FA9D8"/>
<path opacity="0.18" d="M48.3828 21.8281C53.0234 15.0391 53.2812 7.64844 53.2812 1.97656C53.2812 1.97656 52.5938 10.0547 43.1406 20.2813C44.8087 21.0351 46.5727 21.5556 48.3828 21.8281ZM12.6328 53.2812C13.6641 49.4141 14.5234 44.6016 15.6406 39.2734L8.67969 46.2344C10.7384 48.0832 12.1282 50.5607 12.6328 53.2812Z" fill="#101129"/>
<path opacity="0.18" d="M48.3828 21.8281C46.5727 21.5556 44.8087 21.0351 43.1406 20.2812C37.5547 26.2969 28.9609 33 15.6406 39.2734C22.6916 37.549 29.5456 35.1011 36.0938 31.9688C36.2656 32.1406 40.3906 34.0312 42.2813 38.2422C46.5781 34.1172 48.7266 26.0391 48.3828 21.8281Z" fill="#101129"/>
<path d="M31.1953 7.04688C21.3984 7.04688 14.0078 14.5234 14.0078 14.5234C14.0078 14.5234 22.4297 15.2969 22.6875 18.3047M48.3828 21.8281C48.6406 26.0391 46.4922 34.0313 42.1953 38.1563C40.2187 33.6875 35.6641 31.7969 36.0937 31.8828L48.3828 21.8281Z" stroke="#2F446A" stroke-width="2" stroke-linecap="round" stroke-linejoin="round"/>
<path d="M44.6016 11.8594C45.5508 11.8594 46.3203 11.0514 46.3203 10.0547C46.3203 9.05799 45.5508 8.25 44.6016 8.25C43.6523 8.25 42.8828 9.05799 42.8828 10.0547C42.8828 11.0514 43.6523 11.8594 44.6016 11.8594Z" stroke="#2F446A" stroke-width="2" stroke-linecap="round" stroke-linejoin="round"/>
<path d="M34.375 5.24219C31.346 6.89607 28.7082 9.18215 26.6406 11.9453C20.5391 20.1094 17.7031 30.25 15.7266 39.2734C22.748 37.5428 29.5729 35.095 36.0938 31.9688C42.0234 29.0469 45.8906 25.5234 48.3828 21.8281L34.375 5.24219ZM12.6328 53.2813C13.6641 49.4141 14.5234 44.6016 15.6406 39.2734C11.0637 40.4668 6.41293 41.3567 1.71875 41.9375C1.71875 41.9375 11.2578 45.1172 12.6328 53.2813Z" stroke="#2F446A" stroke-width="2" stroke-linecap="round" stroke-linejoin="round"/>
<path d="M34.375 5.24221C34.375 13.4922 38.5859 20.2813 48.4688 21.8281C53.1094 15.0391 53.2812 7.64846 53.2812 1.97659C53.2812 1.97659 43.3125 0.257835 34.375 5.24221Z" stroke="#2F446A" stroke-width="2" stroke-linecap="round" stroke-linejoin="round"/>
</svg>
