<svg width="44" height="53" viewBox="0 0 44 53" fill="none" xmlns="http://www.w3.org/2000/svg">
<g filter="url(#filter0_i_560_9)">
<path d="M22.84 16.1199C19.984 16.1199 18.724 14.4399 12.76 14.4399C6.796 14.4399 1 20.1519 1 29.5599C1 38.9679 7.888 51.3999 15.196 51.3999C19.648 51.3999 19.984 48.0399 22.42 48.0399C24.856 48.0399 26.788 51.3999 29.728 51.3999C32.668 51.3999 43 43.4199 43 29.5599C43 15.6999 34.264 14.4399 31.24 14.4399C28.216 14.4399 26.116 16.1199 22.84 16.1199Z" fill="#F16262"/>
</g>
<path d="M26.2 11.08C26.2 6.04 27.88 1 36.28 1C36.28 6.04 34.6 11.08 26.2 11.08Z" fill="#68963F"/>
<path d="M22.84 16.1199C19.984 16.1199 18.724 14.4399 12.76 14.4399C6.796 14.4399 1 20.1519 1 29.5599C1 38.9679 7.888 51.3999 15.196 51.3999C19.648 51.3999 19.984 48.0399 22.42 48.0399C24.856 48.0399 26.788 51.3999 29.728 51.3999C32.668 51.3999 43 43.4199 43 29.5599C43 15.6999 34.264 14.4399 31.24 14.4399C28.216 14.4399 26.116 16.1199 22.84 16.1199Z" stroke="#2F446A" stroke-width="2" stroke-linecap="round" stroke-linejoin="round"/>
<path d="M14.86 6.04C19.228 6.04 23.26 9.232 23.26 16.12M26.2 11.08C26.2 6.04 27.88 1 36.28 1C36.28 6.04 34.6 11.08 26.2 11.08Z" stroke="#2F446A" stroke-width="2" stroke-linecap="round" stroke-linejoin="round"/>
<circle cx="32.08" cy="26.2" r="4.2" fill="#F48989"/>
<defs>
<filter id="filter0_i_560_9" x="1" y="14.4399" width="43" height="37.96" filterUnits="userSpaceOnUse" color-interpolation-filters="sRGB">
<feFlood flood-opacity="0" result="BackgroundImageFix"/>
<feBlend mode="normal" in="SourceGraphic" in2="BackgroundImageFix" result="shape"/>
<feColorMatrix in="SourceAlpha" type="matrix" values="0 0 0 0 0 0 0 0 0 0 0 0 0 0 0 0 0 0 127 0" result="hardAlpha"/>
<feOffset dx="5" dy="1"/>
<feGaussianBlur stdDeviation="0.5"/>
<feComposite in2="hardAlpha" operator="arithmetic" k2="-1" k3="1"/>
<feColorMatrix type="matrix" values="0 0 0 0 0 0 0 0 0 0 0 0 0 0 0 0 0 0 0.25 0"/>
<feBlend mode="normal" in2="shape" result="effect1_innerShadow_560_9"/>
</filter>
</defs>
</svg>
