<svg viewBox="0 0 64 64" xmlns="http://www.w3.org/2000/svg" aria-labelledby="title"
aria-describedby="desc" role="img" xmlns:xlink="http://www.w3.org/1999/xlink">
  <title>Bacon</title>
  <desc>A color styled icon from Orion Icon Library.</desc>
  <path fill="#f16262"
  d="M45.22 34.917l-3.079-.017c-3.576.346-7.151 1.969-10.728 1.969-4 0-6-2.045-10-2.045s-6 2.045-10 2.045-8.731-2.211-8.731-2.211l-.7 8.2a20.323 20.323 0 0 0 8 2.047c4 0 6-2.047 10-2.047s6 2.047 10 2.047 8-2.047 12-2.047 8.681 1.342 11.342 2.027c4.692 1.209 6.48-2.029 6.661-4.029.056-.615.281-2.932.544-5.844-6.363 4.554-8.738.571-15.309-.095zm-1.235-16.06c-4 0-8 2.047-12 2.047s-6-2.047-10-2.047-6 2.047-10 2.047a20.323 20.323 0 0 1-8-2.047l-.655 8.02a20.953 20.953 0 0 0 8.082 2.047c3.8 0 5.819-1.832 9.447-2.012h1.14c3.605.191 5.619 2.01 9.411 2.01 3.568 0 7.137-1.619 10.705-1.971l3.009.006c6.744.625 9.735 4.611 16.134.031.4-4.4.725-8.137.725-8.137-6.915 4.949-9.996.006-17.998.006z"
  data-name="layer2"></path>
  <path fill="#f8b4b4" d="M45.127 26.958l-3.009-.006c-3.568.351-7.137 1.971-10.705 1.971-3.792 0-5.806-1.818-9.411-2.01h-1.14c-3.628.18-5.643 2.012-9.447 2.012a20.953 20.953 0 0 1-8.082-2.047l-.649 7.781s4.731 2.211 8.731 2.211 6-2.045 10-2.045 6 2.045 10 2.045c3.576 0 7.151-1.623 10.728-1.969l3.079.018c6.571.666 8.947 4.648 15.312.094l.729-8.021c-6.401 4.578-9.392.591-16.136-.034z"
  data-name="layer1"></path>
  <path stroke-width="2" stroke-linejoin="round" stroke-linecap="round"
  stroke="#2f446a" fill="none" d="M61.261 26.99c.4-4.4.752-8.137.752-8.137-6.918 4.951-10 0-18 0-4 0-8 2.047-12 2.047s-6-2.047-10-2.047-6 2.047-10 2.047a20.323 20.323 0 0 1-8-2.047l-.683 8.02m40.111 7.951c-4 0-8 2.045-12 2.045s-6-2.045-10-2.045-6 2.045-10 2.045-8.76-2.211-8.76-2.211l-.67 8.2a20.323 20.323 0 0 0 8 2.047c4 0 6-2.047 10-2.047s6 2.047 10 2.047 8-2.047 12-2.047 8.682 1.342 11.342 2.027c4.693 1.209 6.481-2.029 6.662-4.029.055-.615.251-2.932.516-5.844-6.916 4.95-9.088-.188-17.09-.188z"
  data-name="stroke"></path>
  <path stroke-width="2" stroke-linejoin="round" stroke-linecap="round"
  stroke="#2f446a" fill="none" d="M60.532 35.011l.729-8.021c-6.918 4.951-9.818-.113-17.82-.113-4 0-8 2.047-12 2.047s-6-2.047-10-2.047-6 2.047-10 2.047a21.168 21.168 0 0 1-8.111-2.047l-.649 7.781"
  data-name="stroke"></path>
</svg>