<svg xmlns="http://www.w3.org/2000/svg" viewBox="0 0 64 64" aria-labelledby="title"
aria-describedby="desc" role="img" xmlns:xlink="http://www.w3.org/1999/xlink">
  <title>Banana</title>
  <desc>A color styled icon from Orion Icon Library.</desc>
  <path data-name="layer1"
  d="M13.9 4s-1 8-2 10-.6 1.5 0 2 4.5 6.9 7.1 15.2 12 15.2 17.2 17.6 7.1 2.8 7.9 5.3-.7 5.9-8.8 5.9c-4.9 0-14.1-.7-23.4-10S1.2 33.1 2.6 25.7 5.9 14.9 5.9 14V4z"
  fill="#fede2c"></path>
  <path data-name="opacity" d="M37.3 57c-4.9 0-14.1-.7-23.4-10S3.2 30.1 4.6 22.7 7.9 11.9 7.9 11V4h-2v10c0 .9-2.3 5.7-3.4 11.7S3.9 42 11.9 50s18.5 10 23.4 10c6.6 0 8.6-2.6 8.9-4.6-1.4.9-3.6 1.6-6.9 1.6z"
  fill="#101129" opacity=".18"></path>
  <path data-name="layer1" d="M57.9 36c-3.3.8-7.5.9-14 0s-9.8-4.7-13.4-7.8-5.6-6.7-8.7-9c-1.1-.8-3-1.3-3.4-3S15.9 4 15.9 4h-2s-1 8-2 10-.6 1.5 0 2 4.5 6.9 7.1 15.2 9.2 13.1 14.5 16.2 15.7.5 19.8-.8 8-5 8.6-6.6a3.1 3.1 0 0 0-4-4z"
  fill="#fede2c"></path>
  <path data-name="opacity" d="M11.9 16c1.7 1.5 4.5 6.9 7.1 15.2s9.2 13.1 14.5 16.2 15.7.5 19.8-.8 8-5 8.6-6.6a2.9 2.9 0 0 0 .1-1.3c-17.7 11.7-34.5 1.4-38.9-4.2S15.4 16.9 12 13.8v.2c-.5.9-.7 1.5-.1 2z"
  fill="#101129" opacity=".18"></path>
  <path data-name="stroke" fill="none" stroke="#2f446a" stroke-linecap="round"
  stroke-linejoin="round" stroke-width="2" d="M1.9 4h16.6M5.9 4v10c0 .9-2.2 5.7-3.4 11.7S3.9 42 11.9 50s18.5 10 23.4 10c8.2 0 9.4-4 8.8-5.9s-2.7-2.9-7.9-5.3S21.5 39.5 19 31.2 13.6 17.5 11.9 16s-.5-1.1 0-2 2-10 2-10"></path>
  <path data-name="stroke" d="M15.9 4s2.1 10.4 2.5 12.2 2.3 2.2 3.4 3c3.1 2.3 6.5 7.1 8.7 9s6.8 6.9 13.4 7.8 10.7.8 14 0a3.1 3.1 0 0 1 4 4c-.6 1.6-4.7 5.3-8.6 6.6s-14.7 2.6-19.8.8"
  fill="none" stroke="#2f446a" stroke-linecap="round" stroke-linejoin="round"
  stroke-width="2"></path>
</svg>