<svg xmlns="http://www.w3.org/2000/svg" viewBox="0 0 64 64" aria-labelledby="title"
aria-describedby="desc" role="img" xmlns:xlink="http://www.w3.org/1999/xlink">
  <title>Broccoli</title>
  <desc>A color styled icon from Orion Icon Library.</desc>
  <path data-name="layer2"
  d="M57 27.5a7 7 0 0 0-11-8.4 13 13 0 0 0-25.7-1.7 6 6 0 0 0-8.3 5.5h-1a9 9 0 0 0 0 18h1.3a6 6 0 0 0 10.3 2l-.6-6.6a12.9 12.9 0 0 0 13.6-3.6 13.1 13.1 0 0 0 6.1 5.8l-.9 4.6a7 7 0 0 0 12.6-.3h.6a8 8 0 0 0 3-15.3z"
  fill="#aab437"></path>
  <path data-name="opacity" d="M55.1 39.9h-.7a7 7 0 0 1-12.6.3l.9-4.6a13.1 13.1 0 0 1-6.1-5.8A12.9 12.9 0 0 1 23 33.3a10.4 10.4 0 0 1-6.2-4.1c1.2 5.1-.3 8-3.4 8.6H12a8.9 8.9 0 0 1-8.9-10.2A9 9 0 0 0 11 40.9h1.3a6 6 0 0 0 10.3 2l-.2-2-.4-4.6 1.4.3a12.9 12.9 0 0 0 12.3-4 13.1 13.1 0 0 0 6.1 5.8l-.9 4.6a7 7 0 0 0 12.6-.3h.7a8 8 0 0 0 7.9-7 8 8 0 0 1-7 4.2z"
  fill="#101129" opacity=".18"></path>
  <path data-name="layer1" d="M35.6 32.7A12.9 12.9 0 0 1 22 36.3l.6 6.5L24 56.9h14l2.8-13.8.9-4.6a13.1 13.1 0 0 1-6.1-5.8z"
  fill="#d4dc9a"></path>
  <path data-name="opacity" d="M41.7 38.5a13.1 13.1 0 0 1-6.1-5.8A12.9 12.9 0 0 1 22 36.3l.6 6.5L24 56.9h3.4c-.3-5-.7-12.1-.9-15.6a16.3 16.3 0 0 0 8.7-3.4c1.5 3.5 5.1 5.3 5.6 5.2l.9-4.6z"
  fill="#101129" opacity=".18"></path>
  <path data-name="stroke" fill="none" stroke="#2f446a" stroke-linecap="round"
  stroke-linejoin="round" stroke-width="2" d="M22 36.4l2 20.7h14l3.7-18.5M30 41.1v16"></path>
  <path data-name="stroke" d="M18 34.3a13 13 0 0 0 17.6-1.5 13 13 0 0 0 11.5 7"
  fill="none" stroke="#2f446a" stroke-linecap="round" stroke-linejoin="round"
  stroke-width="2"></path>
  <path data-name="stroke" d="M40.7 43.2a7 7 0 0 0 12.6-.2h.7a8 8 0 0 0 3-15.4 7 7 0 0 0-11-8.4 13 13 0 0 0-25.7-1.7 6 6 0 0 0-8.3 5.6h-1a9 9 0 0 0 0 18h1.3a6 6 0 0 0 10.3 2"
  fill="none" stroke="#2f446a" stroke-linecap="round" stroke-linejoin="round"
  stroke-width="2"></path>
</svg>