<svg xmlns="http://www.w3.org/2000/svg" viewBox="0 0 64 64" aria-labelledby="title"
aria-describedby="desc" role="img" xmlns:xlink="http://www.w3.org/1999/xlink">
  <title>Carrot</title>
  <desc>A color styled icon from Orion Icon Library.</desc>
  <path data-name="layer1"
  d="M46.8 17.3c-5.4-5.4-12.1-7.4-16.7-2.8C18.2 26.5-.4 58.9 2.3 61.7s36.2-16.6 47.3-27.8c4.6-4.6 2.6-11.3-2.8-16.6z"
  fill="#f8971d"></path>
  <path data-name="opacity" d="M50.6 28.9C39.5 40.1 6.1 59.5 3.3 56.7l-.2-.3c-1.1 2.8-1.4 4.7-.8 5.3C5.1 64.5 38.4 45 49.5 33.9a8.4 8.4 0 0 0 2.5-7 9.1 9.1 0 0 1-1.4 2z"
  fill="#101129" opacity=".18"></path>
  <path data-name="opacity" d="M13.1 44.4l-.5.9C8.4 53.6 45 19.5 41.7 16.6a9.8 9.8 0 0 0-4.9-1.6 5.3 5.3 0 0 0-3.9 1.7c-6.4 6.4-14.1 17.9-19.7 27.7z"
  fill="#fff" opacity=".25"></path>
  <path data-name="stroke" d="M46.7 17.3c-5.4-5.4-12.1-7.4-16.7-2.8C18.1 26.5-.5 58.9 2.3 61.7s36.1-16.6 47.2-27.8c4.6-4.6 2.6-11.3-2.8-16.6zm-20.3 1.8l7.8 7.9m6.2 14.5l-6.2-6.2m-16.4-5.2l5.3 5.2m4 15.1l-6.8-6.7M55.1 8.9l-8.4 8.4M45.3 2c2.4 2.4 5.6 11.1 1.4 15.3M62 18.7c-2.4-2.4-11.1-5.6-15.3-1.4"
  fill="none" stroke="#2f446a" stroke-linecap="round" stroke-linejoin="round"
  stroke-width="2"></path>
</svg>