<svg xmlns="http://www.w3.org/2000/svg" viewBox="0 0 64 64" aria-labelledby="title"
aria-describedby="desc" role="img" xmlns:xlink="http://www.w3.org/1999/xlink">
  <title>Carrot</title>
  <desc>A line styled icon from Orion Icon Library.</desc>
  <path data-name="layer2"
  fill="none" stroke="#667071" stroke-linecap="round" stroke-linejoin="round"
  stroke-width="2" d="M55.1 8.9l-8.4 8.4M45.3 2c2.4 2.4 5.6 11.1 1.4 15.3M62 18.7c-2.4-2.4-11.1-5.6-15.3-1.4"></path>
  <path data-name="layer1" d="M46.7 17.3c-5.4-5.4-12.1-7.4-16.7-2.8C18.1 26.5-.5 58.9 2.3 61.7s36.1-16.6 47.2-27.8c4.6-4.6 2.6-11.3-2.8-16.6zm-20.3 1.8l7.8 7.9m6.2 14.5l-6.2-6.2m-16.4-5.2l5.3 5.2m4 15.1l-6.8-6.7"
  fill="none" stroke="#667071" stroke-linecap="round" stroke-linejoin="round"
  stroke-width="2"></path>
</svg>