<svg xmlns="http://www.w3.org/2000/svg" viewBox="0 0 64 64" aria-labelledby="title"
aria-describedby="desc" role="img" xmlns:xlink="http://www.w3.org/1999/xlink">
  <title>Croissant</title>
  <desc>A color styled icon from Orion Icon Library.</desc>
  <path data-name="layer2"
  d="M16.6 39.3l-4.4 15.2a30 30 0 0 0 23.9 7l-7.9-22a11.4 11.4 0 0 1-11.6-.2zm37.8-27.2l-14.9 4.3a12 12 0 0 1 0 11.9l22 7.9a30 30 0 0 0-7.1-24.1z"
  fill="#f6b36d"></path>
  <path data-name="opacity" d="M16.6 39.3l-4.4 15.2a30 30 0 0 0 23.9 7l-7.9-22a11.4 11.4 0 0 1-11.6-.2z"
  fill="#101129" opacity=".18"></path>
  <path data-name="layer1" d="M6.4 29.1c-2.4 0-4.5 3.8-4.3 6.6a29.8 29.8 0 0 0 8.5 17.4l1.6 1.5 4.4-15.3c-5.5-3.4-8.8-10.2-10.2-10.2z"
  fill="#de9d63"></path>
  <path data-name="layer2" d="M61.6 36.1l-22-7.9a25.5 25.5 0 0 1-4.9 6.4 25.2 25.2 0 0 1-6.4 4.9l7.9 22a30 30 0 0 0 25.4-25.4z"
  fill="#f6b36d"></path>
  <path data-name="opacity" d="M54.4 12.1l-14.9 4.3a12 12 0 0 1 0 11.9l22 7.9a30 30 0 0 0-7.1-24.1z"
  fill="#101129" opacity=".18"></path>
  <path data-name="layer1" d="M53.1 10.7a29.8 29.8 0 0 0-17.3-8.5c-4.7-.5-7.3 2.9-6.7 4.3s7.3 4.2 10.5 10l14.9-4.3z"
  fill="#de9d63"></path>
  <path data-name="opacity" d="M6.4 29.1c-2.4 0-4.5 3.8-4.3 6.6a29.9 29.9 0 0 0 8.5 17.4l1.6 1.5 4.4-15.3c-5.5-3.4-8.8-10.2-10.2-10.2zm46.7-18.4a29.8 29.8 0 0 0-17.3-8.5c-4.7-.5-7.3 2.9-6.7 4.3s7.3 4.2 10.5 10l14.9-4.3z"
  fill="#101129" opacity=".25"></path>
  <path data-name="stroke" d="M53.1 10.7a29.8 29.8 0 0 0-17.3-8.5c-4.7-.5-7.3 2.9-6.7 4.3s22.6 11.3 5.7 28.3-25.9-5.7-28.4-5.7-4.5 3.8-4.3 6.6a30 30 0 1 0 50.9-25zM28.3 39.6l7.8 22m3.5-33.3l22 7.8m-45 3.2l-4.4 15.3m27.3-38.2l14.9-4.3"
  fill="none" stroke="#2f446a" stroke-linecap="round" stroke-linejoin="round"
  stroke-width="2"></path>
</svg>