<svg xmlns="http://www.w3.org/2000/svg" viewBox="0 0 64 64" aria-labelledby="title"
aria-describedby="desc" role="img" xmlns:xlink="http://www.w3.org/1999/xlink">
  <title>Ham</title>
  <desc>A color styled icon from Orion Icon Library.</desc>
  <path data-name="layer1"
  d="M10.8 46.7l-2 2.1a4.1 4.1 0 0 0-5.5 6.1C5.4 57 6.2 56.4 7 57.1s.4 1.9 2.2 3.7a4.1 4.1 0 0 0 5.9-5.9l-.3-.2 1.8-1.8"
  fill="#fff4e8"></path>
  <path data-name="layer3" d="M30.3 33.7C20.6 24 17.6 11.2 23.7 5.2c-6 6-13.8 18.4-11.7 32.2 0 0 1 4.9 0 5.9a4.1 4.1 0 0 0 0 5.9l2.9 2.8a4.1 4.1 0 0 0 5.9 0c1-1 5.9 0 5.9 0 13.8 2.1 26.2-5.7 32.2-11.7-6.1 6.1-18.9 3.1-28.6-6.6z"
  fill="#f16262"></path>
  <path data-name="opacity" d="M45.7 42.8C39.6 46 31.9 48.2 23.8 47c0 0-4.9-1-5.9 0a4.1 4.1 0 0 1-5.9 0l-1-1.1a4.1 4.1 0 0 0 1.2 3.2l2.9 2.9a4.1 4.1 0 0 0 5.9 0c1-1 5.9 0 5.9 0C40.6 54.1 53 46.3 59 40.3c-3.1 3.1-8 3.8-13.3 2.5z"
  fill="#101129" opacity=".18"></path>
  <ellipse data-name="layer2" cx="41.3" cy="22.7" rx="15.5" ry="24.8"
  transform="rotate(-45 41.214 22.728)" fill="#f7a3a4"></ellipse>
  <ellipse data-name="layer1" cx="41.3" cy="22.7" rx="5.2" ry="7.2"
  transform="rotate(-45 41.214 22.728)" fill="#fff4e8"></ellipse>
  <ellipse data-name="stroke" cx="41.3" cy="22.7" rx="15.5" ry="24.8"
  transform="rotate(-45 41.214 22.728)" fill="none" stroke="#2f446a" stroke-linecap="round"
  stroke-linejoin="round" stroke-width="2"></ellipse>
  <ellipse data-name="stroke" cx="41.3" cy="22.7" rx="5.2" ry="7.2"
  transform="rotate(-45 41.214 22.728)" fill="none" stroke="#2f446a" stroke-linecap="round"
  stroke-linejoin="round" stroke-width="2"></ellipse>
  <path data-name="stroke" d="M23.7 5.2c-6 6-13.8 18.4-11.7 32.2 0 0 1 4.9 0 5.9a4.1 4.1 0 0 0 0 5.9l2.9 2.8a4.1 4.1 0 0 0 5.9 0c1-1 5.9 0 5.9 0 13.8 2.1 26.2-5.7 32.2-11.7"
  fill="none" stroke="#2f446a" stroke-linecap="round" stroke-linejoin="round"
  stroke-width="2"></path>
  <path data-name="stroke" d="M10.8 46.7l-2 2.1a4.1 4.1 0 0 0-5.5 6.1C5.4 57 6.2 56.4 7 57.1s.4 1.9 2.2 3.7a4.1 4.1 0 0 0 5.9-5.9l-.3-.2 1.8-1.8"
  fill="none" stroke="#2f446a" stroke-linecap="round" stroke-linejoin="round"
  stroke-width="2"></path>
</svg>