<svg xmlns="http://www.w3.org/2000/svg" viewBox="0 0 64 64" aria-labelledby="title"
aria-describedby="desc" role="img" xmlns:xlink="http://www.w3.org/1999/xlink">
  <title>Herbal Medicine</title>
  <desc>A color styled icon from Orion Icon Library.</desc>
  <path data-name="layer1"
  d="M31.91 2.157c-7.926 13.883-9.892 24.84 0 41.69a.106.106 0 0 0 .18 0c9.891-16.85 7.925-27.807 0-41.69a.1.1 0 0 0-.18 0zm26.015 21.87a28.156 28.156 0 0 0-21.632 21.7.107.107 0 0 0 .135.122c13.59-4.422 18.541-10.037 21.61-21.695a.1.1 0 0 0-.113-.127zm-51.85 0a28.175 28.175 0 0 1 21.652 21.7.107.107 0 0 1-.135.122C14 41.43 9.031 35.816 5.962 24.158a.1.1 0 0 1 .113-.131zM2.029 50.088c4.763 3.458 15.1 7.128 26.092-.027a.106.106 0 0 0-.009-.18c-10.993-5.831-17.067-5.456-26.071.037a.1.1 0 0 0-.012.17zm34.528-.035c4.752 3.459 14.4 7.2 25.387.044a.106.106 0 0 0-.009-.18c-10.986-5.832-16.369-5.526-25.365-.034a.1.1 0 0 0-.013.17z"
  fill="#32b278"></path>
  <path data-name="opacity" d="M6.075 24.027c-.014 0-.022.01-.035.013l21.686 21.686A28.174 28.174 0 0 0 6.075 24.027zm26.015 19.82c9.891-16.85 7.925-27.807 0-41.69a.1.1 0 0 0-.09-.051V43.9a.1.1 0 0 0 .09-.053zm25.835-19.82A28.155 28.155 0 0 0 36.3 45.7l21.66-21.66c-.013-.003-.021-.016-.035-.013zM28 49.824c-10.92-5.768-16.987-5.38-25.958.094a.108.108 0 0 0-.051.082H28zM61.987 50a.1.1 0 0 0-.052-.083C51.128 44.18 45.736 44.394 37 49.63V50z"
  fill="#000064" opacity=".16"></path>
  <path data-name="stroke" d="M31.91 2.157c-7.926 13.883-9.892 24.84 0 41.69a.106.106 0 0 0 .18 0c9.891-16.85 7.925-27.807 0-41.69a.1.1 0 0 0-.18 0zm26.015 21.87a28.156 28.156 0 0 0-21.632 21.7.107.107 0 0 0 .135.122c13.59-4.422 18.541-10.037 21.61-21.695a.1.1 0 0 0-.113-.127zm-51.85 0a28.175 28.175 0 0 1 21.652 21.7.107.107 0 0 1-.135.122C14 41.43 9.031 35.816 5.962 24.158a.1.1 0 0 1 .113-.131zM2.029 50.088c4.763 3.458 15.1 7.128 26.092-.027a.106.106 0 0 0-.009-.18c-10.993-5.831-17.067-5.456-26.071.037a.1.1 0 0 0-.012.17zm34.528-.035c4.752 3.459 14.4 7.2 25.387.044a.106.106 0 0 0-.009-.18c-10.986-5.832-16.369-5.526-25.365-.034a.1.1 0 0 0-.013.17zM32 48v14"
  fill="none" stroke="#2e4369" stroke-linecap="round" stroke-miterlimit="10"
  stroke-width="2" stroke-linejoin="round"></path>
</svg>