<svg xmlns="http://www.w3.org/2000/svg" viewBox="0 0 64 64" aria-labelledby="title"
aria-describedby="desc" role="img" xmlns:xlink="http://www.w3.org/1999/xlink">
  <title>Lemon</title>
  <desc>A color styled icon from Orion Icon Library.</desc>
  <path data-name="layer2"
  d="M45.9 31.7c-1-6.6-2.8-7.3-2.8-8.8s1.1-4.4 0-5.5-3.9-.1-5.5 0-2.3-1.8-8.8-2.8-13.7 3.4-18.6 8.3-8 9.3-8.2 16.4 2.5 6.3 2.7 8.2-2.2 6.1 0 8.2 6.3-.3 8.2 0 2.5 3 8.2 2.7 10.4-2.2 16.4-8.2 9.3-11.9 8.4-18.5z"
  fill="#fede2c"></path>
  <path data-name="opacity" d="M38.7 46.3c-6.1 6.1-9.2 7.8-16.4 8.2S15.9 52 14 51.7s-6.1 2.2-8.2 0 .3-6.3 0-8.2-2.9-2.5-2.7-8.2a29.7 29.7 0 0 1 .2-3.1 20.9 20.9 0 0 0-1.2 7.1c-.2 5.7 2.5 6.3 2.7 8.2s-2.2 6.1 0 8.2 6.3-.3 8.2 0 2.5 3 8.2 2.7 10.4-2.2 16.4-8.2c4-4 7.6-9.4 8.3-14.9a31.5 31.5 0 0 1-7.2 11z"
  fill="#101129" opacity=".2"></path>
  <path data-name="layer1" d="M62 17.2c-5-9.1-15.3-7.4-19 0 6.7 9.7 16.4 4.2 19 0z"
  fill="#68963f"></path>
  <ellipse data-name="opacity" cx="26" cy="24" rx="6" ry="3.5" fill="#fff"
  opacity=".25"></ellipse>
  <path data-name="stroke" d="M45.9 31.7c-1-6.6-2.8-7.3-2.8-8.8s1.1-4.4 0-5.5-3.9-.1-5.5 0-2.3-1.8-8.8-2.8-13.7 3.4-18.6 8.3-8 9.3-8.2 16.4 2.5 6.3 2.7 8.2-2.2 6.1 0 8.2 6.3-.3 8.2 0 2.5 3 8.2 2.7 10.4-2.2 16.4-8.2 9.4-11.9 8.4-18.5zM62 17.2c-5-9.1-15.3-7.4-18.9-.1 6.6 9.8 16.4 4.3 18.9.1zm-20.3-.3a11.5 11.5 0 0 0-6.6-11.4"
  fill="none" stroke="#2f446a" stroke-linecap="round" stroke-linejoin="round"
  stroke-width="2"></path>
</svg>