<svg xmlns="http://www.w3.org/2000/svg" viewBox="0 0 64 64" aria-labelledby="title"
aria-describedby="desc" role="img" xmlns:xlink="http://www.w3.org/1999/xlink">
  <title>Mushroom</title>
  <desc>A color styled icon from Orion Icon Library.</desc>
  <path data-name="layer1"
  d="M20.1 42c4 4 6 11 6 20h12s-.2-13.8 6-20M32 2C15.9 2 2 13.5 2 27.1S12 42 20 42h28c8 0 14-4.3 14-14.9S51.4 2 32 2z"
  fill="#fdefe5"></path>
  <path data-name="opacity" d="M54 36H26c-8 0-18-1.4-18-14.9a21.5 21.5 0 0 1 4.3-12.7C6.1 13.1 2 19.8 2 27.1 2 40.6 12 42 20 42h28c5.7 0 10.3-2.2 12.6-7.2A16.6 16.6 0 0 1 54 36zm-34 6c4 4 6 11 6 20h12s-.2-13.8 6-20"
  fill="#101129" opacity=".18"></path>
  <path data-name="opacity" d="M44 42H20a17.3 17.3 0 0 1 3.7 5.9h16.7A16.8 16.8 0 0 1 44 42z"
  fill="#101129" opacity=".18"></path>
  <path data-name="stroke" d="M32 2C15.9 2 2 13.5 2 27.1S12 42 20 42h28c8 0 14-4.3 14-14.9S51.4 2 32 2zM20 42a17.4 17.4 0 0 1 3.8 6h16.5a16.9 16.9 0 0 1 3.7-6m-20.2 6A38.7 38.7 0 0 1 26 62h12a43.5 43.5 0 0 1 2.3-14"
  fill="none" stroke="#2f446a" stroke-linecap="round" stroke-linejoin="round"
  stroke-width="2"></path>
</svg>