<svg width="100" height="100" viewBox="0 0 100 100" fill="none" xmlns="http://www.w3.org/2000/svg">
<path d="M69.6335 47.2985L93.5246 20.6201L78.3936 5.48901L51.9142 29.5792C50.313 31.027 49.2315 32.9606 48.8358 35.0827C48.4402 37.2048 48.7523 39.3982 49.7242 41.3257L10.3038 80.7461C9.24776 81.8022 8.65447 83.2345 8.65447 84.728C8.65447 86.2214 9.24776 87.6538 10.3038 88.7098C11.3599 89.7659 12.7922 90.3592 14.2857 90.3592C15.7792 90.3592 17.2115 89.7659 18.2675 88.7098L57.887 49.0903C59.7733 50.1104 61.9408 50.4873 64.0607 50.164C66.1806 49.8406 68.1371 48.8345 69.6335 47.2985Z" fill="#BACAE8"/>
<path d="M86.1096 13.2051L67.1958 32.1189" stroke="#2F446A" stroke-width="2" stroke-linecap="round" stroke-linejoin="round"/>
<path d="M69.527 47.4049L93.4182 20.7265L78.2871 5.59546L51.8078 29.6857C50.2065 31.1335 49.125 33.067 48.7294 35.1891C48.3337 37.3113 48.6458 39.5046 49.6177 41.4322L10.1974 80.8525C9.14132 81.9086 8.54803 83.3409 8.54803 84.8344C8.54803 86.3279 9.14132 87.7602 10.1974 88.8163C11.2534 89.8723 12.6857 90.4656 14.1792 90.4656C15.6727 90.4656 17.105 89.8723 18.1611 88.8163L57.7805 49.1968C59.6668 50.2168 61.8343 50.5938 63.9542 50.2704C66.0741 49.947 68.0307 48.941 69.527 47.4049Z" stroke="#2F446A" stroke-width="2" stroke-linecap="round" stroke-linejoin="round"/>
<path d="M61.1066 53.1288L88.62 80.6421C89.6775 81.6997 90.2716 83.134 90.2716 84.6296C90.2716 86.1252 89.6775 87.5595 88.62 88.617C87.5624 89.6745 86.1281 90.2687 84.6325 90.2687C83.137 90.2687 81.7026 89.6745 80.6451 88.617L52.9324 60.9043" fill="#F05A41"/>
<path d="M61.1067 53.1286L16.8461 8.86803C13.5148 12.1993 11.6434 16.7174 11.6434 21.4285C11.6434 26.1395 13.5148 30.6577 16.8461 33.9889L42.1663 59.3092C43.0042 60.147 43.9988 60.8116 45.0935 61.265C46.1881 61.7184 47.3614 61.9518 48.5462 61.9518C49.7311 61.9518 50.9044 61.7184 51.999 61.265C53.0937 60.8116 54.0883 60.147 54.9262 59.3092L61.1067 53.1286Z" fill="#BACAE8"/>
<path d="M61.1066 53.1288L88.62 80.6421C89.6775 81.6997 90.2716 83.134 90.2716 84.6296C90.2716 86.1252 89.6775 87.5595 88.62 88.617C87.5624 89.6746 86.1281 90.2687 84.6325 90.2687C83.1369 90.2687 81.7026 89.6746 80.6451 88.617L52.9324 60.9043L61.1066 53.1288Z" stroke="#2F446A" stroke-width="2" stroke-linecap="round" stroke-linejoin="round"/>
<path d="M61.1067 53.1286L16.8461 8.86802C13.5149 12.1993 11.6434 16.7174 11.6434 21.4285C11.6434 26.1395 13.5148 30.6577 16.8461 33.9889L42.1663 59.3092C43.0042 60.147 43.9988 60.8116 45.0935 61.265C46.1881 61.7184 47.3614 61.9518 48.5462 61.9518C49.7311 61.9518 50.9044 61.7184 51.999 61.265C53.0937 60.8116 54.0883 60.147 54.9262 59.3092L61.1067 53.1286Z" stroke="#2F446A" stroke-width="2" stroke-linecap="round" stroke-linejoin="round"/>
</svg>
