<svg xmlns="http://www.w3.org/2000/svg" viewBox="0 0 64 64" aria-labelledby="title"
aria-describedby="desc" role="img" xmlns:xlink="http://www.w3.org/1999/xlink">
  <title>Orange</title>
  <desc>A color styled icon from Orion Icon Library.</desc>
  <path data-name="layer2"
  d="M35 16a24.9 24.9 0 0 0-9 1.7 18.5 18.5 0 0 1-11.3 9A22.2 22.2 0 0 0 11 39c0 12.7 10.7 23 24 23s24-10.3 24-23-10.7-23-24-23z"
  fill="#f8971d"></path>
  <path data-name="layer1" d="M5 28a32.7 32.7 0 0 0 9.7-1.3 18.5 18.5 0 0 0 11.3-9A28.9 28.9 0 0 0 29 4C13 4 5 14.2 5 28z"
  fill="#68963f"></path>
  <path data-name="opacity" d="M26 17.7a18.5 18.5 0 0 1-11.3 9A22.2 22.2 0 0 0 11 39c0 12.7 10.7 23 24 23a24.2 24.2 0 0 0 21-11.8c-4.2 4-10.8 7.9-21 7.9-20.9 0-18.9-18.2-16.8-26.2a15.5 15.5 0 0 0 9.2-7.1 6.2 6.2 0 0 1 7.5.8V16a24.9 24.9 0 0 0-9 1.7z"
  fill="#101129" opacity=".25"></path>
  <ellipse data-name="opacity" cx="45" cy="32" rx="5" ry="7" transform="rotate(-45 44.983 32.068)"
  fill="#fff" opacity=".25"></ellipse>
  <path data-name="stroke" d="M29 4c0 10.2-3.6 24-24 24C5 14.2 13 4 29 4z"
  fill="none" stroke="#2f446a" stroke-linecap="round" stroke-linejoin="round"
  stroke-width="2"></path>
  <path data-name="stroke" d="M26 17.7a24.9 24.9 0 0 1 9-1.7c13.3 0 24 10.3 24 23S48.3 62 35 62 11 51.7 11 39a22.2 22.2 0 0 1 3.7-12.3"
  fill="none" stroke="#2f446a" stroke-linecap="round" stroke-linejoin="round"
  stroke-width="2"></path>
  <path data-name="stroke" d="M29 24c1.5-.7 5-.2 6 2 1-2.2 4.4-2.9 6-2m-6 2c0-6-.4-19.5 6-24"
  fill="none" stroke="#2f446a" stroke-linecap="round" stroke-linejoin="round"
  stroke-width="2"></path>
</svg>