<svg xmlns="http://www.w3.org/2000/svg" viewBox="0 0 64 64" aria-labelledby="title"
aria-describedby="desc" role="img" xmlns:xlink="http://www.w3.org/1999/xlink">
  <title>Sweet Pepper</title>
  <desc>A color styled icon from Orion Icon Library.</desc>
  <path data-name="layer2"
  d="M28.1 12.3C27.5 8.6 28.2 4 30 2h8s-5.8 1.3-2 10.4" fill="#8aaf3f"></path>
  <path data-name="layer1" d="M39.1 13.4a14.5 14.5 0 0 0-7.1-1.5 14.8 14.8 0 0 0-7.2 1.5C18.6 13.2 10 16.7 10 23.9s1.6 11.5 2 18 .1 20 10 20c8 0 7-2 10-2s2 2 10 2c9.9 0 9.6-14.2 10-20s2-11.1 2-18-8.7-10.8-14.9-10.5z"
  fill="#f3d111"></path>
  <path data-name="opacity" d="M29.2 58c-9-.2-5.2-22.1-5.2-22.1 0-5.7-6.9-18.3.8-22.5-6.2-.2-14.8 3.3-14.8 10.5s1.6 11.5 2 18 .1 20 10 20c8 0 7-2 10-2s2 2 10 2a7.5 7.5 0 0 0 6-2.6c-6.7 3.3-11.3-1.1-18.8-1.3z"
  fill="#101129" opacity=".18"></path>
  <ellipse data-name="opacity" cx="35.9" cy="22.1" rx="4" ry="6"
  fill="#fff" opacity=".4"></ellipse>
  <path data-name="stroke" d="M24.8 13.5C18.6 13.3 10 16.8 10 24.1s1.6 11.5 2 18 .1 20 10 20c8 0 7-2 10-2s2 2 10 2c9.9 0 9.6-14.2 10-20s2-11.1 2-18-8.7-10.9-14.9-10.6m-11-1.1c-.6-3.7 0-8.4 1.9-10.3h8s-5.8 1.3-2 10.4"
  fill="none" stroke="#2f446a" stroke-linecap="round" stroke-linejoin="round"
  stroke-width="2"></path>
  <path data-name="stroke" d="M24 36.1c0-6.9-10.2-24 8-24s8 17.4 8 24v8"
  fill="none" stroke="#2f446a" stroke-linecap="round" stroke-linejoin="round"
  stroke-width="2"></path>
</svg>