<svg xmlns="http://www.w3.org/2000/svg" viewBox="0 0 64 64" aria-labelledby="title"
aria-describedby="desc" role="img" xmlns:xlink="http://www.w3.org/1999/xlink">
  <title>Strawberry</title>
  <desc>A color styled icon from Orion Icon Library.</desc>
  <path data-name="layer1"
  d="M32 16.1c-7.4-3.3-24-5.5-24 12.7s18.5 33.3 23.9 33.3S56 46.6 56 28.3s-17.3-15-24-12.2z"
  fill="#f0494c"></path>
  <path data-name="opacity" d="M36.9 59.1c-5.4 0-23.9-15-23.9-33.3 0-5.4 1.4-9 3.7-11.3C11.9 16 8 20 8 28.8c0 18.3 18.5 33.3 23.9 33.3 1.5 0 4.2-1.3 7.2-3.5a6.1 6.1 0 0 1-2.2.5z"
  fill="#101129" opacity=".18"></path>
  <ellipse data-name="opacity" cx="44" cy="21.5" rx="5" ry="3.5"
  fill="#fff" opacity=".4"></ellipse>
  <path data-name="stroke" d="M32 15.9c-7.4-3.2-24-5.4-24 12.8s18.5 33.2 23.9 33.2S56 46.5 56 28.2s-17.3-15-24-12.3z"
  fill="none" stroke="#2f446a" stroke-linecap="round" stroke-linejoin="round"
  stroke-width="2"></path>
  <path data-name="stroke" d="M14 3.9c4.6 1.3 12.1 5.8 18 12 5.8-6.1 11.2-10.3 18-12m-18-2v14m-12 10v4m4 6v4m16-4v4m-8-14v4m0 16v4m12-24v4"
  fill="none" stroke="#2f446a" stroke-linecap="round" stroke-linejoin="round"
  stroke-width="2"></path>
</svg>