<svg xmlns="http://www.w3.org/2000/svg" viewBox="0 0 64 64" aria-labelledby="title"
aria-describedby="desc" role="img" xmlns:xlink="http://www.w3.org/1999/xlink">
  <title>Corn</title>
  <desc>A color styled icon from Orion Icon Library.</desc>
  <path data-name="layer2"
  d="M16.5 19.6c-1.4-1.9-2.2-1-1.9.4l6.2 30c.6 2.9 3 6 10.8 6 4.9 0 7.7-1.1 9.4-2.7L31.7 40z"
  fill="#8aaf3f"></path>
  <path data-name="opacity" d="M16.5 19.6c-1.4-1.9-2.2-1-1.9.4l6.2 30c.6 2.9 3 6 10.8 6 4.9 0 7.7-1.1 9.4-2.7L31.7 40z"
  fill="#101129" opacity=".18"></path>
  <path data-name="layer2" d="M49.3 20.7c.5-2.5-1.1-2.4-2.4-.7L31.7 40l9.4 13.3a7.6 7.6 0 0 0 2-3.3c.8-2.4 4.4-20.2 6.2-29.3z"
  fill="#8aaf3f"></path>
  <path data-name="layer1" d="M41.7 26.9c0-3.8.1-24.9-10-24.9s-10 19.1-10 24.5l10 13.5z"
  fill="#f3d111"></path>
  <path data-name="opacity" d="M31.3 2c-9.7.5-9.6 19.2-9.6 24.5l4 5.4c0-6-2.4-25.2 5.6-29.9z"
  fill="#101129" opacity=".18"></path>
  <path data-name="stroke" fill="none" stroke="#2f446a" stroke-linecap="round"
  stroke-linejoin="round" stroke-width="2" d="M31.7 40l9.4 13.3M21.7 26.6c0-5.3-.1-24.6 10-24.6s10 21.1 10 24.9M31.7 62v-6"></path>
  <path data-name="stroke" d="M49.3 20.7c.5-2.5-1.1-2.4-2.4-.7L31.7 40 16.5 19.6c-1.4-1.9-2.2-1-1.9.4l6.2 30c.6 2.9 3 6 10.8 6s10.4-2.7 11.5-6 4.4-20.3 6.2-29.3z"
  fill="none" stroke="#2f446a" stroke-linecap="round" stroke-linejoin="round"
  stroke-width="2"></path>
</svg>