<svg xmlns="http://www.w3.org/2000/svg" viewBox="0 0 64 64" aria-labelledby="title"
aria-describedby="desc" role="img" xmlns:xlink="http://www.w3.org/1999/xlink">
  <title>Taco</title>
  <desc>A color styled icon from Orion Icon Library.</desc>
  <path data-name="layer3"
  d="M56.3 19.6c-3.2-6-9.8-10.5-20.7-6.5s-13.5 13.5-14.9 25C20 44 19 48.8 17.4 52.2a9.6 9.6 0 0 1-3.9 4.5L62 35.6s-2.5-10-5.7-16z"
  fill="#f9cb9a"></path>
  <path data-name="layer2" d="M35.6 13a21.4 21.4 0 0 1 9-1.4c1.1-3.9-3.4-6.6-6.8-4.3s-7.8.3-7.8.3c-3.2-1-7.8.6-8 4.8s.4 5.3-2 7.2-6.9 1.3-5.1 6.1-.2 5.8-2.3 6.9-3.6 4.3-2.3 6.7 4.4 3.7 2.5 6.5-2.1 5.5 4.6 6.5C19 48.8 20 44 20.7 38.1 22.1 26.6 24.8 17 35.6 13z"
  fill="#70bf44"></path>
  <path data-name="layer1" d="M12.8 45.7c1.9-2.8-1.1-4.2-2.5-6.5s-1-4.9 2.3-6.7 3.9-2.9 2.3-6.9 3.4-4.8 5.1-6.1 1.8-3.1 2-7.2a5.1 5.1 0 0 1 3.3-4.5A8.6 8.6 0 0 0 18 9.6a43.1 43.1 0 0 0-16 34c0 7.7 1 14 8 14 3.4 0 5.7-1.9 7.4-5.4-6.7-.9-5.6-5-4.6-6.5z"
  fill="#e2a875"></path>
  <path data-name="opacity" d="M25.3 7.8h-1.2a5.8 5.8 0 0 0-4.4 5.3c-.2 4.3.4 5.7-1.7 7.5a8.2 8.2 0 0 0 2-.9c2.4-1.9 1.8-3.1 2-7.2A5.1 5.1 0 0 1 25.3 8zM12 27.6c.9 2.5.8 4.1.1 5.3l.6-.3c2.1-1.1 3.9-2.9 2.3-6.9-.7-1.9-.3-3 .5-3.8-2.3.8-5 1.8-3.5 5.7zM6.9 42.5c1.5 2.5 4.8 4 2.7 7.1-1.1 1.6-2.2 5.7 4.1 6.9a7 7 0 0 0 1.6-1.3 12 12 0 0 0 2.1-3.1l-1-.2c-5.6-1.2-4.6-4.9-3.6-6.3s-1.1-4.2-2.5-6.5a4.2 4.2 0 0 1-.2-4.5l-.7.4c-3.6 2.1-4 5-2.5 7.5z"
  fill="#101129" opacity=".18"></path>
  <path data-name="stroke" d="M12.4 57.2L62 35.6s-2.5-10-5.7-16S46.5 9.1 35.6 13 22.1 26.6 20.7 38.1s-4 19.5-10.7 19.5-8-6.3-8-14a43.1 43.1 0 0 1 16-34 8.6 8.6 0 0 1 7.3-1.8"
  fill="none" stroke="#2f446a" stroke-linecap="round" stroke-linejoin="round"
  stroke-width="2"></path>
  <path data-name="stroke" d="M17.4 52.2c-6.7-.9-5.6-5-4.6-6.5s-1.1-4.2-2.5-6.5-1-4.9 2.3-6.7 3.9-2.8 2.3-6.9 3.4-4.8 5.1-6.1 1.8-3.1 2-7.2 4.7-5.8 8-4.8c0 0 4.4 2 7.8-.3s7.9.5 6.8 4.3"
  fill="none" stroke="#2f446a" stroke-linecap="round" stroke-linejoin="round"
  stroke-width="2"></path>
</svg>