<svg xmlns="http://www.w3.org/2000/svg" viewBox="0 0 64 64" aria-labelledby="title"
aria-describedby="desc" role="img" xmlns:xlink="http://www.w3.org/1999/xlink">
  <title>Tomato</title>
  <desc>A color styled icon from Orion Icon Library.</desc>
  <path data-name="layer2"
  d="M44 12.5l4 1.1s-1.2 2-8 4c1.3 1.5 4 8 4 8a28.4 28.4 0 0 1-12-4c-4.4 3.8-14 4-14 4a40.2 40.2 0 0 1 6-8c-3.3-.4-8-4-8-4a33 33 0 0 1 4-1.3c-6.8.3-18 3.3-18 23.3s19 25 30 22c11 3.1 30-2 30-22S50.8 12.8 44 12.5z"
  fill="#f0494c"></path>
  <path data-name="opacity" d="M35 52.6c-11 3.1-30-2-30-22a33.4 33.4 0 0 1 2.1-12.7C4.1 21.4 2 26.8 2 35.6c0 20 19 25 30 22 9 2.5 23.2-.4 28.2-12.4-6.4 7.8-17.7 9.5-25.2 7.4z"
  fill="#101129" opacity=".18"></path>
  <path data-name="layer1" d="M48 13.6l-4-1.1c-2.7-.6-6-1.3-8-.9-.8-2.1-4-6-4-6s-3.3 3.9-4 6a21.5 21.5 0 0 0-8 .7 33 33 0 0 0-4 1.3s4.7 3.6 8 4a40.2 40.2 0 0 0-6 8s9.6-.2 14-4a28.4 28.4 0 0 0 12 4s-2.7-6.5-4-8c6.8-2 8-4 8-4z"
  fill="#8aaf3f"></path>
  <path data-name="opacity" d="M18 25.6a40.2 40.2 0 0 1 6-8 14.3 14.3 0 0 1-4.8-1.9l-3.2.6a33 33 0 0 0-4 1.3s4.7 3.6 8 4a40.2 40.2 0 0 0-6 8s9.6-.2 14-4a28.4 28.4 0 0 0 12 4s-1.2-3-2.5-5.4a23.3 23.3 0 0 1-5.5-2.6c-4.4 3.8-14 4-14 4z"
  fill="#101129" opacity=".18"></path>
  <ellipse data-name="opacity" cx="50.7" cy="24.3" rx="3.5" ry="5"
  transform="rotate(-45 50.635 24.226)" fill="#fff" opacity=".4"></ellipse>
  <path data-name="stroke" d="M36 11.6c-.8-2.1-4-6-4-6s-3.3 3.9-4 6c-5.3-.8-12 2-12 2s4.7 3.6 8 4a40.2 40.2 0 0 0-6 8s9.6-.2 14-4a28.4 28.4 0 0 0 12 4s-2.7-6.5-4-8c6.8-2 8-4 8-4s-8.4-2.7-12-2z"
  fill="none" stroke="#2f446a" stroke-linecap="round" stroke-linejoin="round"
  stroke-width="2"></path>
  <path data-name="stroke" d="M20 12.3c-6.8.3-18 3.3-18 23.3s19 25 30 22c11 3.1 30-2 30-22S50.8 12.8 44 12.5"
  fill="none" stroke="#2f446a" stroke-linecap="round" stroke-linejoin="round"
  stroke-width="2"></path>
</svg>