<svg xmlns="http://www.w3.org/2000/svg" viewBox="0 0 64 64" aria-labelledby="title"
aria-describedby="desc" role="img" xmlns:xlink="http://www.w3.org/1999/xlink">
  <title>Watermelon</title>
  <desc>A color styled icon from Orion Icon Library.</desc>
  <path data-name="layer2"
  d="M56 15v4a24 24 0 1 1-48 0v-4H2v4a30 30 0 1 0 60 0v-4z" fill="#8aaf3f"></path>
  <path data-name="layer1" d="M32 43a24 24 0 0 0 24-24v-4H8v4a24 24 0 0 0 24 24z"
  fill="#f1617e"></path>
  <path data-name="opacity" d="M8 19v-4H2v4a30 30 0 0 0 30 30v-6A24 24 0 0 1 8 19z"
  fill="#101129" opacity=".18"></path>
  <path data-name="opacity" d="M8 19a24 24 0 0 0 24 24V15H8z" fill="#101129"
  opacity=".1"></path>
  <path data-name="stroke" d="M56 15h6v4a30 30 0 1 1-60 0v-4h6" fill="none"
  stroke="#2f446a" stroke-linecap="round" stroke-linejoin="round" stroke-width="2"></path>
  <path data-name="stroke" d="M8 15v4a24 24 0 1 0 48 0v-4zm24 16v4M20 23h-4m31.7 0h-4M24 29l-2.8 2.8M40 29l2.8 2.8"
  fill="none" stroke="#2f446a" stroke-linecap="round" stroke-linejoin="round"
  stroke-width="2"></path>
</svg>